<svg id="Layer_1" data-name="Layer 1" xmlns="http://www.w3.org/2000/svg" viewBox="0 0 526.05042 480.20168"><title>diagram</title><g id="par"><circle cx="263.02521" cy="128.85793" r="121" style="fill:#99ca41"/><circle cx="263.02521" cy="128.85793" r="102" style="fill:#fff"/><g id="text"><path d="M187.10138,92.29518a6.30273,6.30273,0,0,1,0,11.6001,10.32637,10.32637,0,0,1-4.2251.80029h-2.5249v4.29981H174.451v-17.5h8.42529A10.33457,10.33457,0,0,1,187.10138,92.29518Zm-2.80029,7.3125a2.206,2.206,0,0,0,0-3.0249,2.62689,2.62689,0,0,0-1.79981-.5376h-2.1499v4.1001h2.1499A2.62193,2.62193,0,0,0,184.30109,99.60768Z" style="fill:#99ca41"/><path d="M204.10089,96.68288a6.15157,6.15157,0,0,1,1.89991,4.9624v7.3501h-5.25v-1.79981q-.97486,2.05-3.875,2.04981a6.18086,6.18086,0,0,1-2.76221-.5625,3.96091,3.96091,0,0,1-2.3125-3.6875,3.478,3.478,0,0,1,1.5498-3.0752,8.46194,8.46194,0,0,1,4.7002-1.0498h2.2749q-.27538-1.59961-2.57519-1.6001a6.45808,6.45808,0,0,0-1.875.2876,5.27306,5.27306,0,0,0-1.625.7876l-1.79981-3.7251a9.94688,9.94688,0,0,1,2.8374-1.1377,13.71626,13.71626,0,0,1,3.3125-.41211A8.28035,8.28035,0,0,1,204.10089,96.68288Zm-4.45019,8.8374a1.87841,1.87841,0,0,0,.70019-.9751v-.9497H198.951q-1.72485,0-1.7251,1.1499a.99548.99548,0,0,0,.36231.7876,1.4614,1.4614,0,0,0,.98779.3125A1.85708,1.85708,0,0,0,199.6507,105.52028Z" style="fill:#99ca41"/><path d="M218.2508,95.07057v5a8.60458,8.60458,0,0,0-1.25-.10009q-2.9004,0-2.89991,2.9497v6.0752H208.451V95.32057h5.375v1.47461A5.54749,5.54749,0,0,1,218.2508,95.07057Z" style="fill:#99ca41"/><path d="M230.30109,108.52028a7.0472,7.0472,0,0,1-3.4751.7251,6.41506,6.41506,0,0,1-4.42529-1.3877,5.30134,5.30134,0,0,1-1.54981-4.16211v-3.5h-1.875v-4.125h1.875V92.24538h5.64991v3.82519h2.80029v4.125H226.5008v3.44971a1.37743,1.37743,0,0,0,.32519.9751,1.10541,1.10541,0,0,0,.8501.3501,2.20921,2.20921,0,0,0,1.2749-.375Z" style="fill:#99ca41"/><path d="M232.08771,93.408a2.7375,2.7375,0,0,1,0-4.125,3.62729,3.62729,0,0,1,2.46289-.8125,3.729,3.729,0,0,1,2.47461.7749,2.48957,2.48957,0,0,1,.92529,2,2.7562,2.7562,0,0,1-.92529,2.13769,3.54528,3.54528,0,0,1-2.47461.83741A3.62734,3.62734,0,0,1,232.08771,93.408Zm-.3623,1.91259h5.6499v13.67481h-5.6499Z" style="fill:#99ca41"/><path d="M243.06281,108.34548a6.95426,6.95426,0,0,1-2.875-2.52491,7.00546,7.00546,0,0,1,0-7.33789,6.98824,6.98824,0,0,1,2.875-2.5122,9.339,9.339,0,0,1,4.1626-.89991,8.10683,8.10683,0,0,1,4.27539,1.07471,5.58341,5.58341,0,0,1,2.45019,2.9751l-4.37549,2.1499a2.56047,2.56047,0,0,0-2.375-1.7998,2.19338,2.19338,0,0,0-1.66259.6997,2.76023,2.76023,0,0,0-.6626,1.9751,2.79677,2.79677,0,0,0,.6626,2,2.19207,2.19207,0,0,0,1.66259.7002,2.56033,2.56033,0,0,0,2.375-1.8003l4.37549,2.15039a5.58059,5.58059,0,0,1-2.45019,2.97461,8.10243,8.10243,0,0,1-4.27539,1.0752A9.33913,9.33913,0,0,1,243.06281,108.34548Z" style="fill:#99ca41"/><path d="M255.61212,93.408a2.7375,2.7375,0,0,1,0-4.125,3.62816,3.62816,0,0,1,2.46289-.8125,3.72806,3.72806,0,0,1,2.47461.7749,2.48857,2.48857,0,0,1,.92579,2,2.755,2.755,0,0,1-.92579,2.13769,3.54443,3.54443,0,0,1-2.47461.83741A3.62821,3.62821,0,0,1,255.61212,93.408Zm-.3623,1.91259h5.65039v13.67481h-5.65039Z" style="fill:#99ca41"/><path d="M275.83771,95.93288a6.22706,6.22706,0,0,1,2.39941,2.4873,8.33883,8.33883,0,0,1,0,7.4878,6.24794,6.24794,0,0,1-2.39941,2.47509,6.57452,6.57452,0,0,1-3.3125.86231,4.76929,4.76929,0,0,1-3.47559-1.17481v5.77491h-5.64941V95.32057h5.375v1.125a4.7689,4.7689,0,0,1,3.75-1.375A6.56955,6.56955,0,0,1,275.83771,95.93288Zm-3.0625,8.2124a2.86808,2.86808,0,0,0,.625-1.9751,2.91786,2.91786,0,0,0-.625-1.9873,2.15317,2.15317,0,0,0-3.2002,0,2.913,2.913,0,0,0-.625,1.9873,2.86332,2.86332,0,0,0,.625,1.9751,2.17838,2.17838,0,0,0,3.2002,0Z" style="fill:#99ca41"/><path d="M292.17462,96.68288a6.15179,6.15179,0,0,1,1.90039,4.9624v7.3501h-5.25v-1.79981q-.97559,2.05-3.875,2.04981a6.18159,6.18159,0,0,1-2.76269-.5625,3.963,3.963,0,0,1-2.3125-3.6875,3.47911,3.47911,0,0,1,1.5498-3.0752,8.46306,8.46306,0,0,1,4.7002-1.0498h2.27539q-.27539-1.59961-2.5752-1.6001a6.45319,6.45319,0,0,0-1.875.2876,5.26785,5.26785,0,0,0-1.625.7876l-1.7998-3.7251a9.94351,9.94351,0,0,1,2.83691-1.1377,13.7192,13.7192,0,0,1,3.3125-.41211A8.27948,8.27948,0,0,1,292.17462,96.68288Zm-4.45019,8.8374a1.87568,1.87568,0,0,0,.70019-.9751v-.9497h-1.39941q-1.72559,0-1.72559,1.1499a.997.997,0,0,0,.36231.7876,1.46362,1.46362,0,0,0,.98828.3125A1.85665,1.85665,0,0,0,287.72443,105.52028Z" style="fill:#99ca41"/><path d="M306.60041,108.52028a7.04925,7.04925,0,0,1-3.47559.7251,6.41376,6.41376,0,0,1-4.42481-1.3877,5.30133,5.30133,0,0,1-1.5498-4.16211v-3.5h-1.875v-4.125h1.875V92.24538h5.64941v3.82519h2.80079v4.125h-2.80079v3.44971a1.37744,1.37744,0,0,0,.3252.9751,1.10648,1.10648,0,0,0,.85059.3501,2.20765,2.20765,0,0,0,1.27441-.375Z" style="fill:#99ca41"/><path d="M310.78693,108.33278a7.01633,7.01633,0,0,1-2.83789-2.5249,7.05964,7.05964,0,0,1,0-7.3252,6.93546,6.93546,0,0,1,2.83789-2.5122,9.79014,9.79014,0,0,1,8.20019,0,6.85712,6.85712,0,0,1,2.8252,2.5122,7.13548,7.13548,0,0,1,0,7.3252,6.93665,6.93665,0,0,1-2.8252,2.5249,9.6666,9.6666,0,0,1-8.20019,0Zm5.6875-4.19971a2.91839,2.91839,0,0,0,.625-1.98779,2.869,2.869,0,0,0-.625-1.9751,2.17943,2.17943,0,0,0-3.2002,0,2.86416,2.86416,0,0,0-.625,1.9751,2.91344,2.91344,0,0,0,.625,1.98779,2.15315,2.15315,0,0,0,3.2002,0Z" style="fill:#99ca41"/><path d="M334.39923,95.07057v5a8.594,8.594,0,0,0-1.25-.10009q-2.90038,0-2.89941,2.9497v6.0752h-5.65039V95.32057h5.375v1.47461A5.54814,5.54814,0,0,1,334.39923,95.07057Z" style="fill:#99ca41"/><path d="M351.59943,95.32057l-5.625,13.94971a7.90609,7.90609,0,0,1-2.67481,3.75,6.88015,6.88015,0,0,1-3.9248,1.0752,8.27286,8.27286,0,0,1-2.3125-.33741,5.1852,5.1852,0,0,1-1.83789-.88769l1.875-3.875a3.7013,3.7013,0,0,0,.96289.5249,2.96981,2.96981,0,0,0,1.03711.2002,1.75148,1.75148,0,0,0,1.40039-.5503l-5.75-13.84961h5.7998l2.8252,7.32471,2.875-7.32471Z" style="fill:#99ca41"/><path d="M230.576,135.94557h-6.6499l-1.17529,3.04981h-6l7.6499-17.5H230.201l7.6499,17.5H231.7508Zm-1.625-4.25-1.70019-4.40039-1.69971,4.40039Z" style="fill:#99ca41"/><path d="M241.68878,138.34548a6.95438,6.95438,0,0,1-2.875-2.52491,7.00552,7.00552,0,0,1,0-7.33789,6.98836,6.98836,0,0,1,2.875-2.5122,9.339,9.339,0,0,1,4.1626-.89991,8.108,8.108,0,0,1,4.27539,1.07471,5.58343,5.58343,0,0,1,2.4502,2.9751l-4.37549,2.1499a2.56048,2.56048,0,0,0-2.375-1.7998,2.19342,2.19342,0,0,0-1.6626.6997,2.76028,2.76028,0,0,0-.6626,1.9751,2.79682,2.79682,0,0,0,.6626,2,2.1921,2.1921,0,0,0,1.6626.7002,2.56034,2.56034,0,0,0,2.375-1.8003l4.37549,2.15039a5.5806,5.5806,0,0,1-2.4502,2.97461,8.10359,8.10359,0,0,1-4.27539,1.0752A9.33916,9.33916,0,0,1,241.68878,138.34548Z" style="fill:#99ca41"/><path d="M264.201,138.52028a7.04515,7.04515,0,0,1-3.47461.7251,6.41641,6.41641,0,0,1-4.42578-1.3877,5.30133,5.30133,0,0,1-1.5498-4.16211v-3.5h-1.875v-4.125h1.875v-3.82519h5.65039v3.82519h2.7998v4.125h-2.7998v3.44971a1.37748,1.37748,0,0,0,.32519.9751,1.10435,1.10435,0,0,0,.84961.3501,2.21076,2.21076,0,0,0,1.27539-.375Z" style="fill:#99ca41"/><path d="M265.9881,123.408a2.7375,2.7375,0,0,1,0-4.125,3.62816,3.62816,0,0,1,2.46289-.8125,3.72808,3.72808,0,0,1,2.47461.7749,2.48856,2.48856,0,0,1,.92578,2,2.755,2.755,0,0,1-.92578,2.13769,3.54445,3.54445,0,0,1-2.47461.83741A3.62821,3.62821,0,0,1,265.9881,123.408Zm-.3623,1.91259h5.65039v13.67481H265.6258Z" style="fill:#99ca41"/><path d="M276.91291,138.33278a7.01642,7.01642,0,0,1-2.8379-2.5249,7.0597,7.0597,0,0,1,0-7.3252,6.93555,6.93555,0,0,1,2.8379-2.5122,9.79014,9.79014,0,0,1,8.20019,0,6.85719,6.85719,0,0,1,2.8252,2.5122,7.13554,7.13554,0,0,1,0,7.3252,6.93672,6.93672,0,0,1-2.8252,2.5249,9.6666,9.6666,0,0,1-8.20019,0Zm5.6875-4.19971a2.91839,2.91839,0,0,0,.625-1.98779,2.869,2.869,0,0,0-.625-1.9751,2.17943,2.17943,0,0,0-3.2002,0,2.86416,2.86416,0,0,0-.625,1.9751,2.91344,2.91344,0,0,0,.625,1.98779,2.15315,2.15315,0,0,0,3.2002,0Z" style="fill:#99ca41"/><path d="M304.28791,126.59548a6.22178,6.22178,0,0,1,1.5371,4.60009v7.79981H300.1756v-6.8252q0-2.3496-1.67578-2.34961a1.95752,1.95752,0,0,0-1.53711.66211,3.09336,3.09336,0,0,0-.58789,2.08789v6.42481h-5.64941V125.32057h5.375v1.34961a5.20963,5.20963,0,0,1,1.8496-1.1997,6.33944,6.33944,0,0,1,2.2754-.39991A5.5188,5.5188,0,0,1,304.28791,126.59548Z" style="fill:#99ca41"/><path d="M208.4505,164.59548h-1.59961v4.3999H200.9505v-17.5h8.4253a10.33456,10.33456,0,0,1,4.22509.7998,6.46785,6.46785,0,0,1,2.89991,9.0752,6.00624,6.00624,0,0,1-2.4502,2.2251l3.67529,5.3999H211.4256Zm2.3501-8.0127a2.62688,2.62688,0,0,0-1.7998-.5376h-2.14991v4.1001h2.14991a2.62192,2.62192,0,0,0,1.7998-.5376,2.206,2.206,0,0,0,0-3.0249Z" style="fill:#99ca41"/><path d="M233.8758,163.47048h-9.5a2.29911,2.29911,0,0,0,1,1.1875,3.39943,3.39943,0,0,0,1.75.41259,4.41759,4.41759,0,0,0,1.5122-.22509,5.3143,5.3143,0,0,0,1.33789-.77491l2.94971,2.97461q-2.00025,2.2002-5.9751,2.2002a9.81847,9.81847,0,0,1-4.34961-.9126,6.9039,6.9039,0,0,1-2.90039-2.5376,7.07009,7.07009,0,0,1-.0122-7.3125,6.92229,6.92229,0,0,1,2.7749-2.5122,9.14232,9.14232,0,0,1,7.75-.0752,6.50827,6.50827,0,0,1,2.7251,2.42529,7.005,7.005,0,0,1,1.0122,3.82471Q233.9505,162.27053,233.8758,163.47048Zm-8.8501-4.0752a2.25244,2.25244,0,0,0-.75,1.3501h4.3999a2.29684,2.29684,0,0,0-.75-1.3374,2.16321,2.16321,0,0,0-1.44971-.4878A2.20147,2.20147,0,0,0,225.0257,159.39528Z" style="fill:#99ca41"/><path d="M237.62531,168.87038a9.89191,9.89191,0,0,1-2.75-.9751l1.55029-3.7251a8.11249,8.11249,0,0,0,2.25.90039,10.38269,10.38269,0,0,0,2.5249.32471,3.92024,3.92024,0,0,0,1.36231-.1626.52627.52627,0,0,0,.38769-.4873q0-.32447-.48779-.4502a13.27179,13.27179,0,0,0-1.5874-.25,20.82725,20.82725,0,0,1-2.8501-.5122,4.47547,4.47547,0,0,1-2.0625-1.21241,3.51348,3.51348,0,0,1-.88721-2.57519,3.81612,3.81612,0,0,1,.79981-2.375,5.38605,5.38605,0,0,1,2.38769-1.67481,10.40964,10.40964,0,0,1,3.8125-.625,15.99777,15.99777,0,0,1,3.0376.28711,9.2579,9.2579,0,0,1,2.53711.83789l-1.5498,3.72461a8.00465,8.00465,0,0,0-3.9502-1q-1.8501,0-1.84961.65039c0,.2168.166.3711.5.46241a11.49071,11.49071,0,0,0,1.57471.2622,19.18906,19.18906,0,0,1,2.8374.52539,4.57517,4.57517,0,0,1,2.05029,1.22461,3.51634,3.51634,0,0,1,.88721,2.5752,3.74806,3.74806,0,0,1-.7998,2.32519,5.39062,5.39062,0,0,1-2.39991,1.67481,10.67473,10.67473,0,0,1-3.875.625A15.96789,15.96789,0,0,1,237.62531,168.87038Z" style="fill:#99ca41"/><path d="M264.326,163.47048h-9.5a2.29691,2.29691,0,0,0,1,1.1875,3.39825,3.39825,0,0,0,1.75.41259,4.41657,4.41657,0,0,0,1.51172-.22509,5.30622,5.30622,0,0,0,1.33789-.77491l2.9502,2.97461q-2.001,2.2002-5.97559,2.2002a9.82,9.82,0,0,1-4.34961-.9126,6.90384,6.90384,0,0,1-2.90039-2.5376,7.06867,7.06867,0,0,1-.01172-7.3125,6.921,6.921,0,0,1,2.77442-2.5122,9.14232,9.14232,0,0,1,7.75-.0752,6.51239,6.51239,0,0,1,2.72558,2.42529,7.00476,7.00476,0,0,1,1.01172,3.82471Q264.40021,162.27053,264.326,163.47048Zm-8.85058-4.0752a2.25244,2.25244,0,0,0-.75,1.3501h4.40039a2.30209,2.30209,0,0,0-.75-1.3374,2.16542,2.16542,0,0,0-1.4502-.4878A2.20236,2.20236,0,0,0,255.47541,159.39528Z" style="fill:#99ca41"/><path d="M277.4256,156.68288a6.15138,6.15138,0,0,1,1.89941,4.9624v7.3501h-5.25v-1.79981q-.97412,2.05005-3.875,2.04981a6.18011,6.18011,0,0,1-2.76171-.5625,3.9588,3.9588,0,0,1-2.3125-3.6875,3.477,3.477,0,0,1,1.5498-3.0752,8.46081,8.46081,0,0,1,4.7002-1.0498h2.27441q-.27539-1.59962-2.5752-1.6001a6.46308,6.46308,0,0,0-1.875.2876,5.27862,5.27862,0,0,0-1.625.7876l-1.7998-3.7251a9.95012,9.95012,0,0,1,2.83789-1.1377,13.7132,13.7132,0,0,1,3.3125-.41211A8.28126,8.28126,0,0,1,277.4256,156.68288Zm-4.45019,8.8374a1.88108,1.88108,0,0,0,.70019-.9751v-.9497h-1.40039q-1.72411,0-1.72461,1.1499a.994.994,0,0,0,.36231.7876,1.45917,1.45917,0,0,0,.9873.3125A1.85752,1.85752,0,0,0,272.97541,165.52028Z" style="fill:#99ca41"/><path d="M291.575,155.07057v5a8.59389,8.59389,0,0,0-1.25-.10009q-2.90039,0-2.89941,2.9497v6.0752h-5.65039V155.32057h5.375v1.47461A5.54816,5.54816,0,0,1,291.575,155.07057Z" style="fill:#99ca41"/><path d="M296.2381,168.34548a6.95129,6.95129,0,0,1-2.875-2.52491,7.00265,7.00265,0,0,1,0-7.33789,6.98523,6.98523,0,0,1,2.875-2.5122,9.33689,9.33689,0,0,1,4.16211-.89991,8.1056,8.1056,0,0,1,4.27539,1.07471,5.58343,5.58343,0,0,1,2.4502,2.9751l-4.375,2.1499a2.56093,2.56093,0,0,0-2.375-1.7998,2.19446,2.19446,0,0,0-1.66309.6997,2.76222,2.76222,0,0,0-.66211,1.9751,2.7988,2.7988,0,0,0,.66211,2,2.19315,2.19315,0,0,0,1.66309.7002,2.5608,2.5608,0,0,0,2.375-1.8003l4.375,2.15039a5.5806,5.5806,0,0,1-2.4502,2.97461,8.1012,8.1012,0,0,1-4.27539,1.0752A9.337,9.337,0,0,1,296.2381,168.34548Z" style="fill:#99ca41"/><path d="M321.9881,156.59548a6.22178,6.22178,0,0,1,1.53711,4.60009v7.79981H317.8758v-6.8252q0-2.3496-1.67579-2.34961a1.9575,1.9575,0,0,0-1.5371.66211,3.0933,3.0933,0,0,0-.5879,2.08789v6.42481H308.4256V150.44557H314.075v5.97461a5.71573,5.71573,0,0,1,3.85059-1.34961A5.51876,5.51876,0,0,1,321.9881,156.59548Z" style="fill:#99ca41"/></g></g><g id="lxd"><circle cx="130.36882" cy="351.34375" r="121" style="fill:#f89926"/><circle cx="130.36882" cy="351.34375" r="102" style="fill:#fff"/><g id="text-2" data-name="text"><path d="M71.78145,311.09341h5.90039v12.9248h7.8999v4.5752H71.78145Z" style="fill:#f89926"/><path d="M101.50654,323.068h-9.5a2.29723,2.29723,0,0,0,1,1.1875,3.39454,3.39454,0,0,0,1.75.41309,4.4046,4.4046,0,0,0,1.51221-.22559,5.31075,5.31075,0,0,0,1.33789-.77441l2.94971,2.97461q-2.00025,2.2002-5.9751,2.2002a9.81191,9.81191,0,0,1-4.34961-.91309,6.8996,6.8996,0,0,1-2.90039-2.53711,7.07013,7.07013,0,0,1-.01221-7.3125A6.92355,6.92355,0,0,1,90.094,315.568a9.14708,9.14708,0,0,1,7.75-.07519,6.51254,6.51254,0,0,1,2.72509,2.42578,7.00442,7.00442,0,0,1,1.01221,3.82422Q101.58125,321.86879,101.50654,323.068Zm-8.85009-4.07519a2.25517,2.25517,0,0,0-.75,1.35059h4.3999a2.29974,2.29974,0,0,0-.75-1.3379,2.163,2.163,0,0,0-1.44971-.4873A2.20119,2.20119,0,0,0,92.65645,318.99282Z" style="fill:#f89926"/><path d="M114.60615,316.28091a6.15116,6.15116,0,0,1,1.89991,4.96191v7.35059h-5.25V326.7936q-.97487,2.04931-3.875,2.04981a6.18086,6.18086,0,0,1-2.76221-.5625,3.96225,3.96225,0,0,1-2.3125-3.6875,3.47747,3.47747,0,0,1,1.5498-3.0752,8.45766,8.45766,0,0,1,4.7002-1.0498h2.2749q-.27538-1.59962-2.57519-1.60059a6.459,6.459,0,0,0-1.875.28809,5.27265,5.27265,0,0,0-1.625.7871l-1.79981-3.7246a9.94688,9.94688,0,0,1,2.8374-1.1377,13.69194,13.69194,0,0,1,3.3125-.41211A8.28035,8.28035,0,0,1,114.60615,316.28091Zm-4.45019,8.83691a1.87513,1.87513,0,0,0,.70019-.97461v-.9502h-1.3999q-1.72485,0-1.7251,1.1504a.99448.99448,0,0,0,.36231.7871,1.45884,1.45884,0,0,0,.98779.3125A1.85707,1.85707,0,0,0,110.156,325.11782Z" style="fill:#f89926"/><path d="M128.75606,314.6686v5a8.60772,8.60772,0,0,0-1.25-.10059q-2.9004,0-2.89991,2.9502v6.0752h-5.6499V314.9186h5.375v1.47461A5.54589,5.54589,0,0,1,128.75606,314.6686Z" style="fill:#f89926"/><path d="M143.91865,316.193a6.22037,6.22037,0,0,1,1.5376,4.60059v7.79981h-5.6499v-6.8252q0-2.34962-1.67529-2.34961a1.95781,1.95781,0,0,0-1.5376.66211,3.09255,3.09255,0,0,0-.5874,2.08789v6.42481h-5.64991V314.9186h5.375v1.34961a5.21309,5.21309,0,0,1,1.8501-1.2002,6.33681,6.33681,0,0,1,2.2749-.39941A5.51694,5.51694,0,0,1,143.91865,316.193Z" style="fill:#f89926"/><path d="M148.26826,313.00551a2.7375,2.7375,0,0,1,0-4.125,3.6298,3.6298,0,0,1,2.46289-.8125,3.72908,3.72908,0,0,1,2.47461.7754,2.48958,2.48958,0,0,1,.9253,2,2.75693,2.75693,0,0,1-.9253,2.13769,3.54507,3.54507,0,0,1-2.47461.83691A3.62484,3.62484,0,0,1,148.26826,313.00551Zm-.3623,1.91309h5.6499v13.67481H147.906Z" style="fill:#f89926"/><path d="M169.61836,316.193a6.22041,6.22041,0,0,1,1.5376,4.60059v7.79981h-5.6499v-6.8252q0-2.34962-1.6753-2.34961a1.95778,1.95778,0,0,0-1.53759.66211,3.0925,3.0925,0,0,0-.58741,2.08789v6.42481h-5.6499V314.9186h5.375v1.34961a5.21292,5.21292,0,0,1,1.8501-1.2002,6.33681,6.33681,0,0,1,2.2749-.39941A5.51694,5.51694,0,0,1,169.61836,316.193Z" style="fill:#f89926"/><path d="M189.13008,314.9186v10.94922q0,3.90089-2.1626,5.86328a8.85753,8.85753,0,0,1-6.16211,1.96191,15.93155,15.93155,0,0,1-3.82519-.4375,9.62465,9.62465,0,0,1-3.0249-1.26269l1.8999-3.84961a6.53349,6.53349,0,0,0,2.0249.97461,8.02116,8.02116,0,0,0,2.3501.375,3.54262,3.54262,0,0,0,2.4751-.72461,2.772,2.772,0,0,0,.7749-2.125v-.25a4.76007,4.76007,0,0,1-3.7749,1.4502,6.784,6.784,0,0,1-3.2627-.8125,6.15813,6.15813,0,0,1-2.4126-2.3252,6.64224,6.64224,0,0,1-.8999-3.46289,6.57568,6.57568,0,0,1,.8999-3.44922,6.17993,6.17993,0,0,1,2.4126-2.3125,6.784,6.784,0,0,1,3.2627-.8125,4.57967,4.57967,0,0,1,4.0498,1.79981V314.9186Zm-6.26221,7.91211a2.06363,2.06363,0,0,0,.66211-1.58789,2.02294,2.02294,0,0,0-.66211-1.57422,2.38275,2.38275,0,0,0-1.66259-.60059,2.41551,2.41551,0,0,0-1.6875.60059,2.02169,2.02169,0,0,0-.6626,1.57422,2.04556,2.04556,0,0,0,.6748,1.58789,2.40076,2.40076,0,0,0,1.6753.6123A2.356,2.356,0,0,0,182.86787,322.83071Z" style="fill:#f89926"/><path d="M70.33174,354.14321v4.4502H55.78145v-17.5H70.00654v4.45019h-8.4248v2.04981h7.3999v4.25h-7.3999v2.2998Z" style="fill:#f89926"/><path d="M81.05635,358.59341l-1.875-2.92481-2.1001,2.92481h-6.125l5.17529-6.7754-5.02539-6.89941h6.375l1.9502,2.89941,2.0498-2.89941h5.9253L82.38154,351.568l5.14991,7.0254Z" style="fill:#f89926"/><path d="M100.99336,345.53091a6.225,6.225,0,0,1,2.3999,2.4873,7.706,7.706,0,0,1,.8877,3.75,7.62928,7.62928,0,0,1-.8877,3.7373,6.24393,6.24393,0,0,1-2.3999,2.47559,6.57951,6.57951,0,0,1-3.3125.86231,4.76731,4.76731,0,0,1-3.4751-1.17481V363.443h-5.6499V344.9186h5.375v1.125a4.76721,4.76721,0,0,1,3.75-1.375A6.56955,6.56955,0,0,1,100.99336,345.53091Zm-3.0625,8.21191a2.86438,2.86438,0,0,0,.625-1.97461,2.91456,2.91456,0,0,0-.625-1.9873,2.15215,2.15215,0,0,0-3.20019,0,2.91451,2.91451,0,0,0-.625,1.9873,2.86433,2.86433,0,0,0,.625,1.97461,2.17839,2.17839,0,0,0,3.20019,0Z" style="fill:#f89926"/><path d="M120.531,353.068h-9.5a2.29718,2.29718,0,0,0,1,1.1875,3.39451,3.39451,0,0,0,1.75.41309,4.40464,4.40464,0,0,0,1.51221-.22559,5.31092,5.31092,0,0,0,1.33789-.77441l2.9497,2.97461q-2.00024,2.2002-5.97509,2.2002a9.81188,9.81188,0,0,1-4.34961-.91309,6.89954,6.89954,0,0,1-2.90039-2.53711,7.07007,7.07007,0,0,1-.01221-7.3125,6.92352,6.92352,0,0,1,2.7749-2.5127,9.14708,9.14708,0,0,1,7.75-.07519,6.51256,6.51256,0,0,1,2.7251,2.42578,7.0045,7.0045,0,0,1,1.01221,3.82422Q120.60567,351.86879,120.531,353.068Zm-8.8501-4.07519a2.25517,2.25517,0,0,0-.75,1.35059h4.3999a2.29974,2.29974,0,0,0-.75-1.3379,2.163,2.163,0,0,0-1.4497-.4873A2.2012,2.2012,0,0,0,111.68086,348.99282Z" style="fill:#f89926"/><path d="M132.18086,344.6686v5a8.60772,8.60772,0,0,0-1.25-.10059q-2.90039,0-2.8999,2.9502v6.0752h-5.6499V344.9186h5.375v1.47461A5.54587,5.54587,0,0,1,132.18086,344.6686Z" style="fill:#f89926"/><path d="M134.14326,343.00551a2.7375,2.7375,0,0,1,0-4.125,3.6298,3.6298,0,0,1,2.46289-.8125,3.72908,3.72908,0,0,1,2.47461.7754,2.48958,2.48958,0,0,1,.9253,2,2.75693,2.75693,0,0,1-.9253,2.13769,3.54507,3.54507,0,0,1-2.47461.83691A3.62484,3.62484,0,0,1,134.14326,343.00551Zm-.3623,1.91309h5.6499v13.67481H133.781Z" style="fill:#f89926"/><path d="M156.40547,353.068h-9.5a2.29718,2.29718,0,0,0,1,1.1875,3.39454,3.39454,0,0,0,1.75.41309,4.40464,4.40464,0,0,0,1.51221-.22559,5.31092,5.31092,0,0,0,1.33789-.77441l2.94971,2.97461q-2.00025,2.2002-5.9751,2.2002a9.81191,9.81191,0,0,1-4.34961-.91309,6.89954,6.89954,0,0,1-2.90039-2.53711,7.07013,7.07013,0,0,1-.01221-7.3125,6.92359,6.92359,0,0,1,2.7749-2.5127,9.14708,9.14708,0,0,1,7.75-.07519,6.51256,6.51256,0,0,1,2.7251,2.42578,7.00442,7.00442,0,0,1,1.01221,3.82422Q156.48018,351.86879,156.40547,353.068Zm-8.8501-4.07519a2.25517,2.25517,0,0,0-.75,1.35059h4.39991a2.29974,2.29974,0,0,0-.75-1.3379,2.163,2.163,0,0,0-1.44971-.4873A2.2012,2.2012,0,0,0,147.55537,348.99282Z" style="fill:#f89926"/><path d="M171.81807,346.193a6.22041,6.22041,0,0,1,1.5376,4.60059v7.79981h-5.64991v-6.8252q0-2.34962-1.67529-2.34961a1.95781,1.95781,0,0,0-1.5376.66211,3.09255,3.09255,0,0,0-.5874,2.08789v6.42481h-5.6499V344.9186h5.375v1.34961a5.21292,5.21292,0,0,1,1.8501-1.2002,6.33673,6.33673,0,0,1,2.2749-.39941A5.517,5.517,0,0,1,171.81807,346.193Z" style="fill:#f89926"/><path d="M179.24287,357.943a6.95321,6.95321,0,0,1-2.875-2.52441,7.00552,7.00552,0,0,1,0-7.33789,6.98946,6.98946,0,0,1,2.875-2.5127,9.34564,9.34564,0,0,1,4.1626-.89941,8.10943,8.10943,0,0,1,4.2749,1.07422,5.58226,5.58226,0,0,1,2.4502,2.97559l-4.375,2.14941a2.56115,2.56115,0,0,0-2.375-1.79981,2.1921,2.1921,0,0,0-1.6626.7002,2.75981,2.75981,0,0,0-.6626,1.97461,2.79521,2.79521,0,0,0,.6626,2,2.19209,2.19209,0,0,0,1.6626.70019,2.55981,2.55981,0,0,0,2.375-1.7998l4.375,2.15039a5.58021,5.58021,0,0,1-2.4502,2.97461,8.10061,8.10061,0,0,1-4.2749,1.0752A9.33256,9.33256,0,0,1,179.24287,357.943Z" style="fill:#f89926"/><path d="M205.78047,353.068h-9.5a2.29718,2.29718,0,0,0,1,1.1875,3.39454,3.39454,0,0,0,1.75.41309,4.40464,4.40464,0,0,0,1.51221-.22559,5.31092,5.31092,0,0,0,1.33789-.77441l2.94971,2.97461q-2.00025,2.2002-5.9751,2.2002a9.81191,9.81191,0,0,1-4.34961-.91309,6.89954,6.89954,0,0,1-2.90039-2.53711,7.07013,7.07013,0,0,1-.01221-7.3125,6.92359,6.92359,0,0,1,2.7749-2.5127,9.14708,9.14708,0,0,1,7.75-.07519,6.51256,6.51256,0,0,1,2.7251,2.42578,7.00442,7.00442,0,0,1,1.01221,3.82422Q205.85518,351.86879,205.78047,353.068Zm-8.8501-4.07519a2.25517,2.25517,0,0,0-.75,1.35059h4.39991a2.29974,2.29974,0,0,0-.75-1.3379,2.163,2.163,0,0,0-1.44971-.4873A2.2012,2.2012,0,0,0,196.93037,348.99282Z" style="fill:#f89926"/><path d="M84.50606,371.09341h8.625a11.90873,11.90873,0,0,1,5.16259,1.0625,8.084,8.084,0,0,1,3.4751,3.0371,9.356,9.356,0,0,1,0,9.29981,8.07985,8.07985,0,0,1-3.4751,3.03809,11.90887,11.90887,0,0,1-5.16259,1.0625h-8.625Zm8.375,12.89941a4.21389,4.21389,0,0,0,3.03759-1.08691,4.69072,4.69072,0,0,0,0-6.125,4.21023,4.21023,0,0,0-3.03759-1.0879H90.40645v8.29981Z" style="fill:#f89926"/><path d="M119.45625,383.068h-9.5a2.29718,2.29718,0,0,0,1,1.1875,3.39454,3.39454,0,0,0,1.75.41309,4.4046,4.4046,0,0,0,1.51221-.22559,5.31092,5.31092,0,0,0,1.33789-.77441l2.94971,2.97461q-2.00025,2.2002-5.9751,2.2002a9.81191,9.81191,0,0,1-4.34961-.91309,6.89954,6.89954,0,0,1-2.90039-2.53711,7.07013,7.07013,0,0,1-.01221-7.3125,6.92359,6.92359,0,0,1,2.7749-2.5127,9.14708,9.14708,0,0,1,7.75-.07519,6.5125,6.5125,0,0,1,2.7251,2.42578,7.00442,7.00442,0,0,1,1.01221,3.82422Q119.531,381.86879,119.45625,383.068Zm-8.8501-4.07519a2.25517,2.25517,0,0,0-.75,1.35059h4.39991a2.29974,2.29974,0,0,0-.75-1.3379,2.163,2.163,0,0,0-1.44971-.4873A2.2012,2.2012,0,0,0,110.60615,378.99282Z" style="fill:#f89926"/><path d="M123.20576,388.46841a9.87553,9.87553,0,0,1-2.75-.97559l1.5503-3.72461a8.1128,8.1128,0,0,0,2.25.90039,10.3814,10.3814,0,0,0,2.5249.32422,3.93531,3.93531,0,0,0,1.3623-.16211.52672.52672,0,0,0,.3877-.4873c0-.2168-.1626-.36622-.48779-.4502a13.27,13.27,0,0,0-1.58741-.25,20.74386,20.74386,0,0,1-2.85009-.5127,4.4701,4.4701,0,0,1-2.0625-1.21191,3.515,3.515,0,0,1-.88721-2.57519,3.81511,3.81511,0,0,1,.7998-2.375,5.38224,5.38224,0,0,1,2.3877-1.67481,10.39929,10.39929,0,0,1,3.8125-.625,15.997,15.997,0,0,1,3.0376.28711,9.225,9.225,0,0,1,2.53711.83789l-1.54981,3.72461a8.00448,8.00448,0,0,0-3.95019-1q-1.8501,0-1.84961.65039c0,.2168.166.37109.5.46191a11.4716,11.4716,0,0,0,1.5747.2627,19.18816,19.18816,0,0,1,2.83741.52539,4.57522,4.57522,0,0,1,2.05029,1.22461,3.51555,3.51555,0,0,1,.88721,2.5752,3.7491,3.7491,0,0,1-.79981,2.32519,5.39826,5.39826,0,0,1-2.3999,1.67481,10.68531,10.68531,0,0,1-3.875.625A15.968,15.968,0,0,1,123.20576,388.46841Z" style="fill:#f89926"/><path d="M135.79317,373.00551a2.7375,2.7375,0,0,1,0-4.125,3.6298,3.6298,0,0,1,2.46289-.8125,3.7291,3.7291,0,0,1,2.47461.7754,2.4896,2.4896,0,0,1,.92529,2,2.757,2.757,0,0,1-.92529,2.13769,3.54509,3.54509,0,0,1-2.47461.83691A3.62484,3.62484,0,0,1,135.79317,373.00551Zm-.36231,1.91309h5.6499v13.67481h-5.6499Z" style="fill:#f89926"/><path d="M158.85518,374.9186v10.94922q0,3.90089-2.1626,5.86328a8.85755,8.85755,0,0,1-6.16211,1.96191,15.93149,15.93149,0,0,1-3.82519-.4375,9.62481,9.62481,0,0,1-3.02491-1.26269l1.89991-3.84961a6.53338,6.53338,0,0,0,2.0249.97461,8.02111,8.02111,0,0,0,2.3501.375,3.54259,3.54259,0,0,0,2.47509-.72461,2.77191,2.77191,0,0,0,.77491-2.125v-.25a4.76007,4.76007,0,0,1-3.77491,1.4502,6.784,6.784,0,0,1-3.26269-.8125,6.15813,6.15813,0,0,1-2.4126-2.3252,6.64224,6.64224,0,0,1-.8999-3.46289,6.57568,6.57568,0,0,1,.8999-3.44922,6.17993,6.17993,0,0,1,2.4126-2.3125,6.784,6.784,0,0,1,3.26269-.8125,4.57969,4.57969,0,0,1,4.04981,1.79981V374.9186Zm-6.26221,7.91211a2.06363,2.06363,0,0,0,.66211-1.58789,2.02294,2.02294,0,0,0-.66211-1.57422,2.38276,2.38276,0,0,0-1.6626-.60059,2.41554,2.41554,0,0,0-1.6875.60059,2.02171,2.02171,0,0,0-.66259,1.57422,2.04553,2.04553,0,0,0,.6748,1.58789,2.40075,2.40075,0,0,0,1.67529.6123A2.356,2.356,0,0,0,152.593,382.83071Z" style="fill:#f89926"/><path d="M174.91768,376.193a6.22041,6.22041,0,0,1,1.5376,4.60059v7.79981h-5.64991v-6.8252q0-2.34962-1.67529-2.34961a1.95781,1.95781,0,0,0-1.5376.66211,3.09255,3.09255,0,0,0-.5874,2.08789v6.42481h-5.6499V374.9186h5.375v1.34961a5.21292,5.21292,0,0,1,1.8501-1.2002,6.33673,6.33673,0,0,1,2.2749-.39941A5.517,5.517,0,0,1,174.91768,376.193Z" style="fill:#f89926"/></g></g><g id="pd"><circle cx="395.6816" cy="351.34375" r="121" style="fill:#b3519f"/><circle cx="395.6816" cy="351.34375" r="102" style="fill:#fff"/><g id="text-3" data-name="text"><path d="M325.4211,326.89419a6.30279,6.30279,0,0,1,0,11.59961,10.32065,10.32065,0,0,1-4.22559.80078H318.6711v4.2998h-5.9004v-17.5h8.42481A10.33688,10.33688,0,0,1,325.4211,326.89419Zm-2.80079,7.3125a2.20529,2.20529,0,0,0,0-3.02539,2.62843,2.62843,0,0,0-1.7998-.53711H318.6711v4.09961h2.14941A2.62351,2.62351,0,0,0,322.62031,334.20669Z" style="fill:#b3519f"/><path d="M340.96992,329.66958v5a8.59708,8.59708,0,0,0-1.25-.10059q-2.90038,0-2.89941,2.9502v6.07519h-5.65039v-13.6748h5.375v1.47461A5.54655,5.54655,0,0,1,340.96992,329.66958Z" style="fill:#b3519f"/><path d="M345.5832,342.9313a7.01185,7.01185,0,0,1-2.83789-2.52442,7.05968,7.05968,0,0,1,0-7.32519,6.93671,6.93671,0,0,1,2.83789-2.5127,9.7951,9.7951,0,0,1,8.2002,0,6.8583,6.8583,0,0,1,2.8252,2.5127,7.13552,7.13552,0,0,1,0,7.32519,6.93219,6.93219,0,0,1-2.8252,2.52442,9.662,9.662,0,0,1-8.2002,0Zm5.6875-4.19922a2.91973,2.91973,0,0,0,.625-1.98828,2.86842,2.86842,0,0,0-.625-1.97461,2.17837,2.17837,0,0,0-3.20019,0,2.86365,2.86365,0,0,0-.625,1.97461,2.91483,2.91483,0,0,0,.625,1.98828,2.15415,2.15415,0,0,0,3.20019,0Z" style="fill:#b3519f"/><path d="M365.49531,330.66958h2.97559v4.125h-2.80078v8.7998H360.0207v-8.7998h-1.875v-4.125h1.875v-.0752a5.65014,5.65014,0,0,1,1.59961-4.2373,6.16826,6.16826,0,0,1,4.5-1.5625,9.715,9.715,0,0,1,1.85059.1748,5.26115,5.26115,0,0,1,1.5.5l-1.35059,3.92481a3.06389,3.06389,0,0,0-1.27441-.3252,1.29069,1.29069,0,0,0-.98828.3877,1.69077,1.69077,0,0,0-.36231,1.1875Z" style="fill:#b3519f"/><path d="M384.3957,338.069h-9.5a2.29951,2.29951,0,0,0,1,1.1875,3.39587,3.39587,0,0,0,1.75.41309,4.40588,4.40588,0,0,0,1.5127-.22559,5.3192,5.3192,0,0,0,1.33789-.77441l2.94922,2.97461q-1.99951,2.20019-5.97461,2.20019a9.81042,9.81042,0,0,1-4.34961-.91308,6.89961,6.89961,0,0,1-2.90039-2.53711,7.06868,7.06868,0,0,1-.0127-7.3125,6.92491,6.92491,0,0,1,2.7754-2.5127,9.14708,9.14708,0,0,1,7.75-.07519,6.50832,6.50832,0,0,1,2.7246,2.42578,7.00457,7.00457,0,0,1,1.0127,3.82422Q384.4709,336.86977,384.3957,338.069Zm-8.8496-4.07519a2.25515,2.25515,0,0,0-.75,1.35058h4.39941a2.2945,2.2945,0,0,0-.75-1.33789,2.16076,2.16076,0,0,0-1.44922-.4873A2.20028,2.20028,0,0,0,375.5461,333.9938Z" style="fill:#b3519f"/><path d="M388.1457,343.46938a9.86987,9.86987,0,0,1-2.75-.97558l1.54981-3.72461a8.1128,8.1128,0,0,0,2.25.90039,10.3828,10.3828,0,0,0,2.52539.32422,3.93906,3.93906,0,0,0,1.3623-.16211.52734.52734,0,0,0,.3877-.48731c0-.21679-.16309-.36621-.48828-.45019a13.24038,13.24038,0,0,0-1.58692-.25,20.74025,20.74025,0,0,1-2.85058-.5127,4.47029,4.47029,0,0,1-2.0625-1.21191,3.51488,3.51488,0,0,1-.88672-2.5752,3.81223,3.81223,0,0,1,.7998-2.375,5.38229,5.38229,0,0,1,2.3877-1.6748,10.39573,10.39573,0,0,1,3.8125-.625,15.9919,15.9919,0,0,1,3.03711.28711,9.21909,9.21909,0,0,1,2.53711.83789l-1.54981,3.72461a8.00448,8.00448,0,0,0-3.95019-1q-1.8501,0-1.84961.65039c0,.21679.166.37109.5.46191a11.48207,11.48207,0,0,0,1.57519.2627,19.18015,19.18015,0,0,1,2.83692.52539,4.57668,4.57668,0,0,1,2.05078,1.22461,3.51739,3.51739,0,0,1,.88672,2.57519,3.74907,3.74907,0,0,1-.79981,2.3252,5.39361,5.39361,0,0,1-2.39941,1.6748,10.6887,10.6887,0,0,1-3.875.625A15.96471,15.96471,0,0,1,388.1457,343.46938Z" style="fill:#b3519f"/><path d="M402.26973,343.46938a9.88123,9.88123,0,0,1-2.75-.97558l1.55078-3.72461a8.1128,8.1128,0,0,0,2.25.90039,10.38111,10.38111,0,0,0,2.52441.32422,3.93158,3.93158,0,0,0,1.36231-.16211.52609.52609,0,0,0,.38769-.48731c0-.21679-.16211-.36621-.4873-.45019a13.29936,13.29936,0,0,0-1.58789-.25,20.751,20.751,0,0,1-2.84961-.5127,4.47029,4.47029,0,0,1-2.0625-1.21191,3.51526,3.51526,0,0,1-.8877-2.5752,3.8181,3.8181,0,0,1,.79981-2.375,5.3822,5.3822,0,0,1,2.38769-1.6748,10.403,10.403,0,0,1,3.8125-.625,16.00209,16.00209,0,0,1,3.03809.28711,9.23025,9.23025,0,0,1,2.53711.83789l-1.54981,3.72461a8.00448,8.00448,0,0,0-3.95019-1q-1.8501,0-1.84961.65039c0,.21679.166.37109.5.46191a11.46162,11.46162,0,0,0,1.57422.2627,19.19551,19.19551,0,0,1,2.83789.52539,4.57354,4.57354,0,0,1,2.0498,1.22461,3.51369,3.51369,0,0,1,.8877,2.57519,3.74907,3.74907,0,0,1-.79981,2.3252,5.40261,5.40261,0,0,1-2.40039,1.6748,10.68135,10.68135,0,0,1-3.875.625A15.97123,15.97123,0,0,1,402.26973,343.46938Z" style="fill:#b3519f"/><path d="M414.85762,328.00649a2.7375,2.7375,0,0,1,0-4.125,3.62893,3.62893,0,0,1,2.46289-.8125,3.73,3.73,0,0,1,2.47461.77539,2.4906,2.4906,0,0,1,.9248,2,2.75817,2.75817,0,0,1-.9248,2.1377,3.54592,3.54592,0,0,1-2.47461.83691A3.624,3.624,0,0,1,414.85762,328.00649Zm-.36231,1.91309h5.64942v13.6748h-5.64942Z" style="fill:#b3519f"/><path d="M425.78242,342.9313a7.01185,7.01185,0,0,1-2.83789-2.52442,7.05391,7.05391,0,0,1,0-7.32519,6.93671,6.93671,0,0,1,2.83789-2.5127,9.79286,9.79286,0,0,1,8.19922,0,6.84613,6.84613,0,0,1,2.8252,2.5127,7.1296,7.1296,0,0,1,0,7.32519,6.91977,6.91977,0,0,1-2.8252,2.52442,9.65982,9.65982,0,0,1-8.19922,0Zm5.6875-4.19922a2.91973,2.91973,0,0,0,.625-1.98828,2.86842,2.86842,0,0,0-.625-1.97461,2.17837,2.17837,0,0,0-3.20019,0,2.86365,2.86365,0,0,0-.625,1.97461,2.91483,2.91483,0,0,0,.625,1.98828,2.15415,2.15415,0,0,0,3.20019,0Z" style="fill:#b3519f"/><path d="M453.15742,331.194a6.22224,6.22224,0,0,1,1.53711,4.60059v7.7998h-5.64941v-6.82519q0-2.34961-1.67578-2.34961a1.95748,1.95748,0,0,0-1.53711.66211,3.09245,3.09245,0,0,0-.58789,2.08789v6.4248h-5.64942v-13.6748h5.375v1.34961a5.21091,5.21091,0,0,1,1.84961-1.2002,6.33949,6.33949,0,0,1,2.27539-.39941A5.51848,5.51848,0,0,1,453.15742,331.194Z" style="fill:#b3519f"/><path d="M468.76973,331.28188a6.151,6.151,0,0,1,1.89941,4.96192v7.35058h-5.25v-1.7998q-.97412,2.04932-3.875,2.0498a6.18015,6.18015,0,0,1-2.76172-.5625,3.96014,3.96014,0,0,1-2.3125-3.6875,3.47638,3.47638,0,0,1,1.54981-3.07519,8.45651,8.45651,0,0,1,4.70019-1.04981h2.27442q-.2754-1.5996-2.5752-1.60058a6.46431,6.46431,0,0,0-1.875.28808,5.27822,5.27822,0,0,0-1.625.78711l-1.7998-3.72461a9.95012,9.95012,0,0,1,2.83789-1.13769,13.68889,13.68889,0,0,1,3.3125-.41211A8.28131,8.28131,0,0,1,468.76973,331.28188Zm-4.4502,8.83692a1.87776,1.87776,0,0,0,.7002-.97461v-.9502h-1.40039q-1.72413,0-1.72461,1.15039a.993.993,0,0,0,.3623.78711,1.45664,1.45664,0,0,0,.98731.3125A1.85753,1.85753,0,0,0,464.31953,340.1188Z" style="fill:#b3519f"/><path d="M473.11934,325.04458h5.64941v18.5498h-5.64941Z" style="fill:#b3519f"/><path d="M305.60762,356.09438h8.625a11.905,11.905,0,0,1,5.16211,1.0625,8.08261,8.08261,0,0,1,3.47558,3.03711,9.356,9.356,0,0,1,0,9.29981,8.07833,8.07833,0,0,1-3.47558,3.03808,11.905,11.905,0,0,1-5.16211,1.0625h-8.625Zm8.375,12.89942a4.21187,4.21187,0,0,0,3.03711-1.08692,4.69075,4.69075,0,0,0,0-6.125,4.20829,4.20829,0,0,0-3.03711-1.08789H311.508v8.29981Z" style="fill:#b3519f"/><path d="M340.55781,368.069h-9.5a2.295,2.295,0,0,0,1,1.1875,3.3934,3.3934,0,0,0,1.75.41309,4.4038,4.4038,0,0,0,1.51172-.22559,5.30216,5.30216,0,0,0,1.33789-.77441l2.9502,2.97461q-2.001,2.20019-5.97559,2.20019a9.81339,9.81339,0,0,1-4.34961-.91308,6.89967,6.89967,0,0,1-2.90039-2.53711,7.07159,7.07159,0,0,1-.01172-7.3125,6.92219,6.92219,0,0,1,2.77442-2.5127,9.14708,9.14708,0,0,1,7.75-.07519,6.51676,6.51676,0,0,1,2.72558,2.42578,7.00417,7.00417,0,0,1,1.01172,3.82422Q340.632,366.86977,340.55781,368.069Zm-8.85058-4.07519a2.25515,2.25515,0,0,0-.75,1.35058h4.40039a2.305,2.305,0,0,0-.75-1.33789,2.16517,2.16517,0,0,0-1.4502-.4873A2.2021,2.2021,0,0,0,331.70723,363.9938Z" style="fill:#b3519f"/><path d="M357.382,359.91958l-5.5,13.6748h-5.84961l-5.5-13.6748h5.79981l2.75,7.32422,2.95019-7.32422Z" style="fill:#b3519f"/><path d="M372.35762,368.069h-9.5a2.295,2.295,0,0,0,1,1.1875,3.39338,3.39338,0,0,0,1.75.41309,4.40384,4.40384,0,0,0,1.51172-.22559,5.30251,5.30251,0,0,0,1.33789-.77441l2.95019,2.97461q-2.001,2.20019-5.97558,2.20019a9.81336,9.81336,0,0,1-4.34961-.91308,6.89961,6.89961,0,0,1-2.90039-2.53711,7.07153,7.07153,0,0,1-.01172-7.3125,6.92216,6.92216,0,0,1,2.77441-2.5127,9.14708,9.14708,0,0,1,7.75-.07519,6.51678,6.51678,0,0,1,2.72559,2.42578,7.00425,7.00425,0,0,1,1.01172,3.82422Q372.43184,366.86977,372.35762,368.069ZM363.507,363.9938a2.25515,2.25515,0,0,0-.75,1.35058h4.40039a2.30489,2.30489,0,0,0-.75-1.33789,2.16514,2.16514,0,0,0-1.45019-.4873A2.20211,2.20211,0,0,0,363.507,363.9938Z" style="fill:#b3519f"/><path d="M374.20723,355.04458h5.65039v18.5498h-5.65039Z" style="fill:#b3519f"/><path d="M385.49434,372.9313a7.01172,7.01172,0,0,1-2.83789-2.52442,7.05962,7.05962,0,0,1,0-7.32519,6.93658,6.93658,0,0,1,2.83789-2.5127,9.79508,9.79508,0,0,1,8.20019,0,6.85823,6.85823,0,0,1,2.8252,2.5127,7.13546,7.13546,0,0,1,0,7.32519,6.93213,6.93213,0,0,1-2.8252,2.52442,9.662,9.662,0,0,1-8.20019,0Zm5.6875-4.19922a2.91978,2.91978,0,0,0,.625-1.98828,2.86847,2.86847,0,0,0-.625-1.97461,2.17838,2.17838,0,0,0-3.2002,0,2.86365,2.86365,0,0,0-.625,1.97461,2.91483,2.91483,0,0,0,.625,1.98828,2.15416,2.15416,0,0,0,3.2002,0Z" style="fill:#b3519f"/><path d="M411.74434,360.53188a6.223,6.223,0,0,1,2.40039,2.48731,7.71146,7.71146,0,0,1,.88769,3.75,7.63465,7.63465,0,0,1-.88769,3.7373,6.242,6.242,0,0,1-2.40039,2.47559,6.57952,6.57952,0,0,1-3.3125.8623,4.76526,4.76526,0,0,1-3.47461-1.1748V378.444h-5.65039V359.91958h5.375v1.125a4.76718,4.76718,0,0,1,3.75-1.375A6.56967,6.56967,0,0,1,411.74434,360.53188Zm-3.0625,8.21192a2.862,2.862,0,0,0,.625-1.97461,2.91213,2.91213,0,0,0-.625-1.98731,2.15218,2.15218,0,0,0-3.2002,0,2.91708,2.91708,0,0,0-.625,1.98731,2.86679,2.86679,0,0,0,.625,1.97461,2.1784,2.1784,0,0,0,3.2002,0Z" style="fill:#b3519f"/><path d="M438.86934,361.194a6.35131,6.35131,0,0,1,1.4873,4.60059v7.7998h-5.64941v-6.82519q0-2.34961-1.52539-2.34961a1.57526,1.57526,0,0,0-1.28711.59961,3.00109,3.00109,0,0,0-.48731,1.90039v6.6748H425.757v-6.82519q0-2.34961-1.52539-2.34961a1.57528,1.57528,0,0,0-1.28711.59961,3.00115,3.00115,0,0,0-.4873,1.90039v6.6748h-5.65039v-13.6748h5.375V361.194a5.24993,5.24993,0,0,1,3.875-1.52441,5.80927,5.80927,0,0,1,2.47558.51172,4.34715,4.34715,0,0,1,1.79981,1.5625,5.55668,5.55668,0,0,1,2-1.53711,6.11441,6.11441,0,0,1,2.57519-.53711A5.28165,5.28165,0,0,1,438.86934,361.194Z" style="fill:#b3519f"/><path d="M457.53145,368.069h-9.5a2.29942,2.29942,0,0,0,1,1.1875,3.39582,3.39582,0,0,0,1.75.41309,4.40586,4.40586,0,0,0,1.51269-.22559,5.319,5.319,0,0,0,1.33789-.77441l2.94922,2.97461q-1.99952,2.20019-5.97461,2.20019a9.81042,9.81042,0,0,1-4.34961-.91308,6.89967,6.89967,0,0,1-2.90039-2.53711,7.06865,7.06865,0,0,1-.01269-7.3125,6.92482,6.92482,0,0,1,2.77539-2.5127,9.14708,9.14708,0,0,1,7.75-.07519,6.50841,6.50841,0,0,1,2.72461,2.42578,7.00465,7.00465,0,0,1,1.01269,3.82422Q457.60664,366.86977,457.53145,368.069Zm-8.84961-4.07519a2.25515,2.25515,0,0,0-.75,1.35058h4.39941a2.2945,2.2945,0,0,0-.75-1.33789,2.16076,2.16076,0,0,0-1.44922-.4873A2.20028,2.20028,0,0,0,448.68184,363.9938Z" style="fill:#b3519f"/><path d="M472.94453,361.194a6.22224,6.22224,0,0,1,1.53711,4.60059v7.7998h-5.64941v-6.82519q0-2.34961-1.67578-2.34961a1.95747,1.95747,0,0,0-1.53711.66211,3.09245,3.09245,0,0,0-.58789,2.08789v6.4248H459.382v-13.6748h5.375v1.34961a5.21091,5.21091,0,0,1,1.84961-1.2002,6.33949,6.33949,0,0,1,2.27539-.39941A5.51848,5.51848,0,0,1,472.94453,361.194Z" style="fill:#b3519f"/><path d="M487.007,373.1188a7.049,7.049,0,0,1-3.47558.72558,6.4162,6.4162,0,0,1-4.42481-1.38769,5.30135,5.30135,0,0,1-1.5498-4.16211v-3.5h-1.875v-4.125h1.875v-3.8252h5.64941v3.8252H486.007v4.125h-2.80078v3.44922a1.37869,1.37869,0,0,0,.3252.97558,1.10609,1.10609,0,0,0,.85058.34961,2.20768,2.20768,0,0,0,1.27442-.375Z" style="fill:#b3519f"/></g></g></svg>