<svg id="Layer_1" data-name="Layer 1" xmlns="http://www.w3.org/2000/svg" viewBox="0 0 153 42"><defs><style>.cls-1{fill:#97cf3e;}.cls-2{fill:#d43ccd;}.cls-3{fill:#ff9a21;}.cls-4{fill:#fff;}</style></defs><title>2Artboard 2</title><path class="cls-1" d="M19.54817,2.74616A12.36692,12.36692,0,0,0,7.18129,15.1131c0,.40387.02252.80237.06042,1.19629A12.352,12.352,0,0,0,13.166,25.69123a12.34442,12.34442,0,0,1,18.68872-9.38184c.03784-.39392.06042-.79242.06042-1.19629A12.36693,12.36693,0,0,0,19.54817,2.74616Z"/><path class="cls-2" d="M31.85464,16.30939a12.32407,12.32407,0,0,0-12.30646-.2782,12.36761,12.36761,0,0,1,6.3822,9.66c.03785.394.06043.79242.06043,1.19635A12.36261,12.36261,0,0,1,19.54818,37.7439,12.36074,12.36074,0,0,0,31.85464,16.30939Z"/><path class="cls-3" d="M25.93038,25.69123A12.36584,12.36584,0,0,1,7.24166,16.30939,12.361,12.361,0,1,0,25.99081,26.88758C25.99081,26.48365,25.96823,26.08521,25.93038,25.69123Z"/><path class="cls-4" d="M19.54818,16.0312A12.36767,12.36767,0,0,0,13.166,25.69126a12.28022,12.28022,0,0,0,12.76443,0A12.36768,12.36768,0,0,0,19.54818,16.0312Z"/><path class="cls-4" d="M51.79946,19.82068v14.6167h-.96582V32.01453a4.41651,4.41651,0,0,1-1.71386,1.85156,4.83225,4.83225,0,0,1-2.502.65039,5.11733,5.11733,0,0,1-2.60058-.66992A4.78873,4.78873,0,0,1,42.196,31.995a5.43647,5.43647,0,0,1-.66016-2.69873,5.49437,5.49437,0,0,1,.66016-2.709,4.70448,4.70448,0,0,1,1.82129-1.85157,5.17492,5.17492,0,0,1,2.60058-.66015,4.74383,4.74383,0,0,1,2.47266.65039,4.62917,4.62917,0,0,1,1.72363,1.812V19.82068ZM48.79458,33.0785a3.95979,3.95979,0,0,0,1.47754-1.53662,4.92407,4.92407,0,0,0,0-4.4917,3.96642,3.96642,0,0,0-1.47754-1.53663,4.34317,4.34317,0,0,0-4.23535,0,3.96642,3.96642,0,0,0-1.47754,1.53663,4.93193,4.93193,0,0,0,0,4.4917,3.95979,3.95979,0,0,0,1.47754,1.53662,4.3431,4.3431,0,0,0,4.23535,0Z"/><path class="cls-4" d="M65.6481,29.5326H56.80239a4.28718,4.28718,0,0,0,.61133,2.1372,3.89619,3.89619,0,0,0,1.5459,1.44825,4.64638,4.64638,0,0,0,2.19629.51172,4.70651,4.70651,0,0,0,1.8623-.36426A3.62137,3.62137,0,0,0,64.446,32.19227l.57129.6499a4.38475,4.38475,0,0,1-1.68457,1.24072,5.86343,5.86343,0,0,1-4.93457-.23633A4.85458,4.85458,0,0,1,56.51724,31.995a5.31564,5.31564,0,0,1-.67969-2.69873,5.59135,5.59135,0,0,1,.63965-2.689,4.72282,4.72282,0,0,1,1.76367-1.86181,5.09419,5.09419,0,0,1,5.0332-.00977,4.68709,4.68709,0,0,1,1.75293,1.8418,5.53552,5.53552,0,0,1,.64063,2.6792Zm-6.83594-4.10742a3.67249,3.67249,0,0,0-1.38867,1.35937,4.42276,4.42276,0,0,0-.60157,1.97949h7.87989a4.1221,4.1221,0,0,0-.59082-1.96972,3.82543,3.82543,0,0,0-3.34864-1.852A3.9369,3.9369,0,0,0,58.81216,25.42518Z"/><path class="cls-4" d="M69.96255,34.14246a4.88669,4.88669,0,0,1-1.75391-.94629l.45313-.7876a5.18789,5.18789,0,0,0,1.625.88623,6.14769,6.14769,0,0,0,2.0791.3545,4.07689,4.07689,0,0,0,2.29492-.51172,1.63189,1.63189,0,0,0,.73828-1.41846,1.33131,1.33131,0,0,0-.40332-1.02441,2.49491,2.49491,0,0,0-.99512-.55127q-.59033-.17725-1.63476-.37451a13.64884,13.64884,0,0,1-1.9707-.47266,3.0786,3.0786,0,0,1-1.28028-.82764,2.22273,2.22273,0,0,1-.53125-1.57568,2.46608,2.46608,0,0,1,1.01367-2.01953,4.57806,4.57806,0,0,1,2.88672-.79785,7.07868,7.07868,0,0,1,1.9502.27588,4.88345,4.88345,0,0,1,1.57617.729l-.45312.78809a4.70739,4.70739,0,0,0-1.43848-.68946,5.85353,5.85353,0,0,0-1.6543-.23681,3.66057,3.66057,0,0,0-2.167.53222,1.65175,1.65175,0,0,0-.72949,1.39844,1.39033,1.39033,0,0,0,.41406,1.07373,2.589,2.589,0,0,0,1.01465.57129q.60059.1875,1.68359.40381a14.57337,14.57337,0,0,1,1.94141.46289,2.953,2.953,0,0,1,1.25.79785,2.14244,2.14244,0,0,1,.51269,1.51709A2.4037,2.4037,0,0,1,75.321,33.74793a5.04746,5.04746,0,0,1-2.99512.76855A7.43469,7.43469,0,0,1,69.96255,34.14246Z"/><path class="cls-4" d="M80.068,21.42615a.74346.74346,0,0,1-.23633-.56152.80688.80688,0,0,1,.80762-.80762.79679.79679,0,0,1,.57129.22656.747.747,0,0,1,.23632.56153.80685.80685,0,0,1-.80761.80761A.79509.79509,0,0,1,80.068,21.42615Zm.0791,2.72852h.98437V34.43738h-.98437Z"/><path class="cls-4" d="M95.55239,24.15467v9.18017a5.1092,5.1092,0,0,1-1.24121,3.78223,5.1405,5.1405,0,0,1-3.74316,1.2207,8.17674,8.17674,0,0,1-2.67871-.43359A5.2125,5.2125,0,0,1,85.86,36.703l.53125-.749A5.43526,5.43526,0,0,0,88.2438,37.0575a6.68642,6.68642,0,0,0,2.30469.39355,4.16056,4.16056,0,0,0,3.03418-.9746A4.09879,4.09879,0,0,0,94.567,33.453V31.71912A4.36914,4.36914,0,0,1,92.81411,33.453a5.19276,5.19276,0,0,1-2.52148.61035,5.34431,5.34431,0,0,1-2.61035-.64063,4.70163,4.70163,0,0,1-1.8418-1.78222,5.30614,5.30614,0,0,1,0-5.16162,4.64234,4.64234,0,0,1,1.8418-1.773,5.42491,5.42491,0,0,1,2.61035-.63037,5.21451,5.21451,0,0,1,2.56054.63037,4.3061,4.3061,0,0,1,1.75293,1.773V24.15467Zm-3.01465,8.50049a3.79107,3.79107,0,0,0,1.50782-1.458,4.19345,4.19345,0,0,0,.541-2.13721,4.14389,4.14389,0,0,0-.541-2.12793,3.81189,3.81189,0,0,0-1.50782-1.44775,4.48628,4.48628,0,0,0-2.167-.522,4.43171,4.43171,0,0,0-2.15722.522A3.82867,3.82867,0,0,0,86.71646,26.932a4.13431,4.13431,0,0,0-.541,2.12793,4.18371,4.18371,0,0,0,.541,2.13721,3.8077,3.8077,0,0,0,1.49707,1.458,4.42613,4.42613,0,0,0,2.15722.52148A4.4806,4.4806,0,0,0,92.53774,32.65516Z"/><path class="cls-4" d="M108.81021,25.19861a4.37579,4.37579,0,0,1,1.123,3.231v6.00781h-.98535v-5.9292a3.64653,3.64653,0,0,0-.877-2.63964,3.25193,3.25193,0,0,0-2.45215-.90625,3.78068,3.78068,0,0,0-2.85645,1.08349,4.0227,4.0227,0,0,0-1.04394,2.91553v5.47607h-.98535V24.15467h.94531v2.22607a3.91554,3.91554,0,0,1,1.58594-1.69433,4.88976,4.88976,0,0,1,2.49218-.61084A4.1275,4.1275,0,0,1,108.81021,25.19861Z"/><path class="cls-4" d="M121.06313,19.82068h.98438v14.6167h-.98438Z"/><path class="cls-4" d="M133.611,25.05066a3.77252,3.77252,0,0,1,1.02441,2.8667v6.52h-.94531V32.60584a3.4229,3.4229,0,0,1-1.4375,1.40869,4.7816,4.7816,0,0,1-2.26563.502,4.17833,4.17833,0,0,1-2.709-.80761,2.79338,2.79338,0,0,1-.0791-4.20606,4.40322,4.40322,0,0,1,2.92578-.79785H133.651v-.82715a2.89672,2.89672,0,0,0-.77832-2.18652,3.15784,3.15784,0,0,0-2.2754-.749,5.47343,5.47343,0,0,0-1.96.355,4.91534,4.91534,0,0,0-1.58593.94531l-.49219-.709a5.4646,5.4646,0,0,1,1.85156-1.07373,6.72087,6.72087,0,0,1,2.26563-.38427A4.09248,4.09248,0,0,1,133.611,25.05066ZM132.30142,33.118a3.59811,3.59811,0,0,0,1.34961-1.71387V29.47352h-3.50684a3.48817,3.48817,0,0,0-2.19629.55175,1.84723,1.84723,0,0,0-.67969,1.51661,1.8987,1.8987,0,0,0,.748,1.58593,3.36749,3.36749,0,0,0,2.1084.58106A3.87065,3.87065,0,0,0,132.30142,33.118Z"/><path class="cls-4" d="M147.4606,24.73572a4.70045,4.70045,0,0,1,1.82226,1.85157,5.49437,5.49437,0,0,1,.66016,2.709,5.43647,5.43647,0,0,1-.66016,2.69873,4.78452,4.78452,0,0,1-1.82226,1.85156,5.11378,5.11378,0,0,1-2.59961.66992,4.786,4.786,0,0,1-2.49219-.66015,4.4772,4.4772,0,0,1-1.72363-1.8418v2.42285h-.94629V19.82068h.98535v6.67823a4.44148,4.44148,0,0,1,1.71387-1.78321,4.82234,4.82234,0,0,1,2.46289-.64013A5.17132,5.17132,0,0,1,147.4606,24.73572Zm-.53125,8.34278a3.94282,3.94282,0,0,0,1.4873-1.53662,4.92407,4.92407,0,0,0,0-4.4917,3.94937,3.94937,0,0,0-1.4873-1.53663,4.1513,4.1513,0,0,0-2.12793-.55126,4.09806,4.09806,0,0,0-2.11817.55126,3.964,3.964,0,0,0-1.47656,1.53663,4.92407,4.92407,0,0,0,0,4.4917,3.95739,3.95739,0,0,0,1.47656,1.53662,4.09336,4.09336,0,0,0,2.11817.55127A4.14651,4.14651,0,0,0,146.92935,33.0785Z"/><path class="cls-4" d="M43.49868,15.96717a4.23266,4.23266,0,0,1-1.6416-1.59229,4.47505,4.47505,0,0,1-.59375-2.30175,4.47633,4.47633,0,0,1,.59375-2.30176,4.17845,4.17845,0,0,1,1.6416-1.584,4.91415,4.91415,0,0,1,2.38477-.56933,4.57964,4.57964,0,0,1,2.12011.47851,3.41112,3.41112,0,0,1,1.44336,1.38623l-1.2041.77539a2.69318,2.69318,0,0,0-1.02344-.94043,2.91649,2.91649,0,0,0-1.35253-.31347,3.128,3.128,0,0,0-1.543.37939,2.7057,2.7057,0,0,0-1.07227,1.08057,3.26742,3.26742,0,0,0-.38769,1.60889,3.30189,3.30189,0,0,0,.38769,1.62548,2.70263,2.70263,0,0,0,1.07227,1.08057,3.12273,3.12273,0,0,0,1.543.37939,2.91649,2.91649,0,0,0,1.35253-.31347,2.69318,2.69318,0,0,0,1.02344-.94043l1.2041.75879A3.45633,3.45633,0,0,1,48.00356,16.058a4.51134,4.51134,0,0,1-2.12011.48681A4.85372,4.85372,0,0,1,43.49868,15.96717Z"/><path class="cls-4" d="M52.76333,15.96717a4.18908,4.18908,0,0,1-1.625-1.59229,4.51845,4.51845,0,0,1-.58594-2.30175,4.51974,4.51974,0,0,1,.58594-2.30176,4.13535,4.13535,0,0,1,1.625-1.584,4.80163,4.80163,0,0,1,2.34375-.56933,4.75034,4.75034,0,0,1,2.334.56933,4.14736,4.14736,0,0,1,1.61719,1.584,4.51964,4.51964,0,0,1,.58594,2.30176,4.51835,4.51835,0,0,1-.58594,2.30175,4.20169,4.20169,0,0,1-1.61719,1.59229,4.69239,4.69239,0,0,1-2.334.57763A4.74291,4.74291,0,0,1,52.76333,15.96717Zm3.85352-1.19629A2.74108,2.74108,0,0,0,57.6647,13.682a3.327,3.327,0,0,0,.3789-1.60888,3.32834,3.32834,0,0,0-.3789-1.60889,2.69132,2.69132,0,0,0-1.04785-1.08057,3.19373,3.19373,0,0,0-3.01954,0,2.74418,2.74418,0,0,0-1.05664,1.08057,3.278,3.278,0,0,0-.38769,1.60889,3.2767,3.2767,0,0,0,.38769,1.60888,2.79537,2.79537,0,0,0,1.05664,1.08887,3.13357,3.13357,0,0,0,3.01954,0Z"/><path class="cls-4" d="M69.15688,8.58338a3.79741,3.79741,0,0,1,.98145,2.82959v5.03271h-1.584V11.59461A2.689,2.689,0,0,0,67.944,9.68055,2.2979,2.2979,0,0,0,66.195,9.037a2.72454,2.72454,0,0,0-2.0293.751,2.93323,2.93323,0,0,0-.74316,2.15332v4.50439h-1.584V7.70057h1.51855V9.02088A3.06788,3.06788,0,0,1,64.652,7.98133a4.52414,4.52414,0,0,1,1.85645-.36328A3.6157,3.6157,0,0,1,69.15688,8.58338Z"/><path class="cls-4" d="M80.64907,7.70057,76.821,16.44568H75.20376L71.37563,7.70057H73.026L76.029,14.71326l3.06835-7.01269Z"/><path class="cls-4" d="M89.75649,12.601H82.66177a2.74474,2.74474,0,0,0,1.01465,1.85644,3.30879,3.30879,0,0,0,2.15332.70117,3.24267,3.24267,0,0,0,2.52441-1.05566l.875,1.02295a3.831,3.831,0,0,1-1.47754,1.05566,5.56482,5.56482,0,0,1-4.42969-.206,4.04834,4.04834,0,0,1-1.6582-1.59229,4.56465,4.56465,0,0,1-.58594-2.31,4.63294,4.63294,0,0,1,.56934-2.29346A4.06882,4.06882,0,0,1,83.2145,8.18738a4.46419,4.46419,0,0,1,2.252-.56933,4.3804,4.3804,0,0,1,2.23632.56933A4.00093,4.00093,0,0,1,89.237,9.77967a4.85413,4.85413,0,0,1,.55274,2.34277A4.41167,4.41167,0,0,1,89.75649,12.601ZM83.56118,9.64783a2.792,2.792,0,0,0-.89941,1.81494h5.61035a2.81974,2.81974,0,0,0-.89941-1.80664,2.95228,2.95228,0,0,0-3.81153-.0083Z"/><path class="cls-4" d="M94.72329,8.014a4.43644,4.43644,0,0,1,1.96387-.396V9.15271a3.15933,3.15933,0,0,0-.36328-.0166,2.66564,2.66564,0,0,0-2.02149.76709,3.03986,3.03986,0,0,0-.73437,2.18653v4.356H91.984V7.70057h1.51856V9.16932A2.7008,2.7008,0,0,1,94.72329,8.014Z"/><path class="cls-4" d="M106.91665,7.70057V15.2577a4.51754,4.51754,0,0,1-1.13867,3.39062,4.72037,4.72037,0,0,1-3.39844,1.09717,8.13794,8.13794,0,0,1-2.35937-.33789,4.66681,4.66681,0,0,1-1.81543-.96533l.75879-1.2212a4.48078,4.48078,0,0,0,1.50976.8335,5.749,5.749,0,0,0,1.85645.30518,3.11288,3.11288,0,0,0,2.26855-.72608,2.98868,2.98868,0,0,0,.73438-2.21094v-.69287a3.50216,3.50216,0,0,1-1.37793,1.01465,4.586,4.586,0,0,1-1.77344.33838,4.77271,4.77271,0,0,1-2.26856-.53662A3.9829,3.9829,0,0,1,98.32,14.0448a4.208,4.208,0,0,1-.57715-2.20263A4.208,4.208,0,0,1,98.32,9.63953a3.93024,3.93024,0,0,1,1.59277-1.49316,4.83756,4.83756,0,0,1,2.26856-.52832,4.63011,4.63011,0,0,1,1.83984.36328,3.41825,3.41825,0,0,1,1.39453,1.07226v-1.353Zm-3.01074,6.6333a2.68787,2.68787,0,0,0,1.07226-1.01514,2.83646,2.83646,0,0,0,.3877-1.47656,2.67519,2.67519,0,0,0-.8418-2.0542,3.3959,3.3959,0,0,0-4.33984,0,2.67788,2.67788,0,0,0-.84082,2.0542,2.82731,2.82731,0,0,0,.38769,1.47656,2.68158,2.68158,0,0,0,1.07227,1.01514,3.49788,3.49788,0,0,0,3.10254,0Z"/><path class="cls-4" d="M117.8063,12.601h-7.09473a2.74477,2.74477,0,0,0,1.01465,1.85644,3.30881,3.30881,0,0,0,2.15332.70117,3.24271,3.24271,0,0,0,2.52442-1.05566l.875,1.02295a3.8312,3.8312,0,0,1-1.47754,1.05566,5.56482,5.56482,0,0,1-4.42969-.206,4.04827,4.04827,0,0,1-1.6582-1.59229,4.56455,4.56455,0,0,1-.58594-2.31,4.63293,4.63293,0,0,1,.56933-2.29346,4.06877,4.06877,0,0,1,1.56739-1.59229,4.46415,4.46415,0,0,1,2.252-.56933,4.38044,4.38044,0,0,1,2.23633.56933,4.001,4.001,0,0,1,1.53418,1.59229,4.85424,4.85424,0,0,1,.55273,2.34277A4.41381,4.41381,0,0,1,117.8063,12.601ZM111.611,9.64783a2.792,2.792,0,0,0-.89942,1.81494h5.61035a2.81969,2.81969,0,0,0-.89941-1.80664,2.95226,2.95226,0,0,0-3.81152-.0083Z"/><path class="cls-4" d="M127.35122,8.58338a3.79777,3.79777,0,0,1,.98242,2.82959v5.03271h-1.585V11.59461a2.68448,2.68448,0,0,0-.61035-1.91406,2.29646,2.29646,0,0,0-1.749-.64356,2.726,2.726,0,0,0-2.0293.751,2.93281,2.93281,0,0,0-.74219,2.15332v4.50439h-1.584V7.70057h1.51758V9.02088a3.07672,3.07672,0,0,1,1.29589-1.03955,4.51946,4.51946,0,0,1,1.85547-.36328A3.61263,3.61263,0,0,1,127.35122,8.58338Z"/><path class="cls-4" d="M132.74673,15.96717a4.226,4.226,0,0,1-1.6416-1.59229,4.46553,4.46553,0,0,1-.59375-2.30175,4.4668,4.4668,0,0,1,.59375-2.30176,4.172,4.172,0,0,1,1.6416-1.584,4.91411,4.91411,0,0,1,2.38476-.56933,4.57965,4.57965,0,0,1,2.12012.47851A3.41112,3.41112,0,0,1,138.695,9.48279l-1.2041.77539a2.69318,2.69318,0,0,0-1.02344-.94043,2.91937,2.91937,0,0,0-1.35254-.31347,3.128,3.128,0,0,0-1.543.37939,2.69957,2.69957,0,0,0-1.07226,1.08057,3.26742,3.26742,0,0,0-.3877,1.60889,3.3019,3.3019,0,0,0,.3877,1.62548,2.69651,2.69651,0,0,0,1.07226,1.08057,3.12278,3.12278,0,0,0,1.543.37939,2.91937,2.91937,0,0,0,1.35254-.31347,2.69318,2.69318,0,0,0,1.02344-.94043l1.2041.75879a3.45633,3.45633,0,0,1-1.44336,1.39453,4.51135,4.51135,0,0,1-2.12012.48681A4.85368,4.85368,0,0,1,132.74673,15.96717Z"/><path class="cls-4" d="M148.48013,12.601H141.3854a2.7409,2.7409,0,0,0,1.01465,1.85644,3.30881,3.30881,0,0,0,2.15332.70117,3.24409,3.24409,0,0,0,2.52441-1.05566l.874,1.02295a3.82043,3.82043,0,0,1-1.47657,1.05566,5.56715,5.56715,0,0,1-4.43066-.206,4.0602,4.0602,0,0,1-1.6582-1.59229,4.56394,4.56394,0,0,1-.585-2.31,4.63293,4.63293,0,0,1,.56933-2.29346,4.06882,4.06882,0,0,1,1.56738-1.59229,4.46419,4.46419,0,0,1,2.252-.56933,4.37427,4.37427,0,0,1,2.23535.56933,4.00329,4.00329,0,0,1,1.53516,1.59229,4.85424,4.85424,0,0,1,.55273,2.34277A4.68064,4.68064,0,0,1,148.48013,12.601Zm-6.19629-2.95313a2.79549,2.79549,0,0,0-.89844,1.81494h5.60938a2.81058,2.81058,0,0,0-.89942-1.80664,2.95226,2.95226,0,0,0-3.81152-.0083Z"/></svg>