<svg xmlns="http://www.w3.org/2000/svg" viewBox="0 0 289.00829 42"><defs><style>.cls-1{fill:#fff;}.cls-2{fill:#00a3ba;}.cls-3{fill:#8031a7;}.cls-4{fill:#e04e39;}.cls-5{fill:#010101;}</style></defs><title>logo-lockup</title><g id="Lockup"><g id="convergence-circles"><path class="cls-1" d="M18.07829,12.06174A20.74528,20.74528,0,0,0,7.37289,28.26531a20.59859,20.59859,0,0,0,21.4108,0A20.74525,20.74525,0,0,0,18.07829,12.06174Z"/><path class="cls-2" d="M18.07829,4.954A10.87075,10.87075,0,0,0,7.20756,15.82483c0,.35505.01984.70527.0531,1.05158a10.85775,10.85775,0,0,0,5.20752,8.24682,10.851,10.851,0,0,1,16.42773-8.24682c.03327-.34631.05311-.69653.05311-1.05158A10.87076,10.87076,0,0,0,18.07829,4.954Z"/><path class="cls-3" d="M28.89591,16.87641a10.83336,10.83336,0,0,0-10.81762-.24457,10.87141,10.87141,0,0,1,5.61011,8.49139c.03326.34632.0531.69654.0531,1.05158a10.86707,10.86707,0,0,1-5.66321,9.543A10.86534,10.86534,0,0,0,28.89591,16.87641Z"/><path class="cls-4" d="M23.6884,25.12323A10.86976,10.86976,0,0,1,7.26066,16.87641a10.8656,10.8656,0,1,0,16.48084,9.2984C23.7415,25.81977,23.72166,25.46955,23.6884,25.12323Z"/></g><g id="convergence"><path d="M51.25651,19.8202V34.43738H49.91715V32.38855a4.27279,4.27279,0,0,1-1.665,1.59571,4.88766,4.88766,0,0,1-2.33448.55176,5.26259,5.26259,0,0,1-2.63965-.66993A4.78017,4.78017,0,0,1,41.42643,31.994a5.93128,5.93128,0,0,1,0-5.47656A4.72107,4.72107,0,0,1,43.278,24.65613a5.32745,5.32745,0,0,1,2.63965-.66015,4.9047,4.9047,0,0,1,2.27539.52246,4.31,4.31,0,0,1,1.665,1.52636V19.8202ZM47.99626,32.79188a3.5703,3.5703,0,0,0,1.3789-1.42774,4.67293,4.67293,0,0,0,0-4.21582,3.57279,3.57279,0,0,0-1.3789-1.42871,4.11659,4.11659,0,0,0-3.93994,0,3.56633,3.56633,0,0,0-1.37891,1.42871,4.67293,4.67293,0,0,0,0,4.21582,3.56385,3.56385,0,0,0,1.37891,1.42774,4.10962,4.10962,0,0,0,3.93994,0Z"/><path d="M65.32194,29.68934H56.654a3.70455,3.70455,0,0,0,1.24121,2.61035,4.1209,4.1209,0,0,0,2.83692.99511,4.47618,4.47618,0,0,0,1.77295-.34472A3.87234,3.87234,0,0,0,63.904,31.93543l.7876.90625a4.43531,4.43531,0,0,1-1.72363,1.26074,5.82685,5.82685,0,0,1-2.27539.4336,5.751,5.751,0,0,1-2.82666-.67969,4.89336,4.89336,0,0,1-1.9209-1.88184,5.35917,5.35917,0,0,1-.68946-2.71875A5.55725,5.55725,0,0,1,55.9152,26.537a4.7801,4.7801,0,0,1,1.8125-1.87109,5.06358,5.06358,0,0,1,2.59082-.66992,5.00964,5.00964,0,0,1,2.58057.66992,4.74738,4.74738,0,0,1,1.79248,1.86133,5.60472,5.60472,0,0,1,.65039,2.72851ZM57.8068,26.1532A3.75261,3.75261,0,0,0,56.654,28.64539h7.34815a3.75434,3.75434,0,0,0-1.15235-2.49219,3.806,3.806,0,0,0-5.043,0Z"/><path d="M69.70524,34.17078a5.17085,5.17085,0,0,1-1.80273-.916l.63037-1.10254a5.29951,5.29951,0,0,0,1.63525.83691,6.48964,6.48964,0,0,0,2.04883.3252,3.90668,3.90668,0,0,0,2.09766-.44336,1.41029,1.41029,0,0,0,.67968-1.251,1.12663,1.12663,0,0,0-.374-.89648,2.48092,2.48092,0,0,0-.9458-.49219,13.63738,13.63738,0,0,0-1.5166-.3252,17.3321,17.3321,0,0,1-2.0293-.48242,2.97815,2.97815,0,0,1-1.31006-.83789,2.32614,2.32614,0,0,1-.5415-1.63477,2.56189,2.56189,0,0,1,1.08349-2.12792,4.86783,4.86783,0,0,1,3.01368-.82715,7.84972,7.84972,0,0,1,2.00976.26562,5.5428,5.5428,0,0,1,1.65479.7002l-.61084,1.12207a5.23229,5.23229,0,0,0-3.05371-.88574,3.53862,3.53862,0,0,0-2.019.47265,1.44789,1.44789,0,0,0-.67968,1.24121,1.22415,1.22415,0,0,0,.38427.94531,2.35648,2.35648,0,0,0,.95557.52247,15.446,15.446,0,0,0,1.57568.34472,17.89719,17.89719,0,0,1,1.98975.47266,2.92289,2.92289,0,0,1,1.28076.80762,2.22339,2.22339,0,0,1,.53174,1.57617,2.5075,2.5075,0,0,1-1.13281,2.15722,5.39076,5.39076,0,0,1-3.14209.79786A7.94639,7.94639,0,0,1,69.70524,34.17078Z"/><path d="M80.09684,21.51355a.96358.96358,0,0,1-.29541-.709.94417.94417,0,0,1,.29541-.68945.98854.98854,0,0,1,.729-.29492,1.00717,1.00717,0,0,1,.72851.28515.91264.91264,0,0,1,.2959.67969,1.03066,1.03066,0,0,1-1.75342.72851Zm.01953,2.56153H81.5153v10.3623H80.11637Z"/><path d="M96.15251,24.07508v9.10156A5.276,5.276,0,0,1,94.862,37.0868a5.33573,5.33573,0,0,1-3.89063,1.2705,8.69439,8.69439,0,0,1-2.72851-.42285,5.62444,5.62444,0,0,1-2.09815-1.17285l.709-1.06347a5.3176,5.3176,0,0,0,1.82226,1.04394,6.79214,6.79214,0,0,0,2.25586.375,3.97882,3.97882,0,0,0,2.896-.917,3.856,3.856,0,0,0,.92578-2.84668V32.03406a4.22207,4.22207,0,0,1-1.7041,1.49707,5.26523,5.26523,0,0,1-2.33447.51172,5.50719,5.50719,0,0,1-2.64942-.63965,4.724,4.724,0,0,1-1.87158-1.793,5.0421,5.0421,0,0,1-.67969-2.61035A4.98937,4.98937,0,0,1,86.194,26.3993a4.69473,4.69473,0,0,1,1.86133-1.77246A5.55616,5.55616,0,0,1,90.715,23.996a5.25729,5.25729,0,0,1,2.38379.53222,4.29559,4.29559,0,0,1,1.71386,1.53614V24.07508ZM92.882,32.31922a3.48369,3.48369,0,0,0,1.40869-1.34961,3.8533,3.8533,0,0,0,.50244-1.96973,3.80222,3.80222,0,0,0-.50244-1.96,3.52693,3.52693,0,0,0-1.39893-1.33984,4.54962,4.54962,0,0,0-4.0581-.00977,3.43273,3.43273,0,0,0-1.39844,1.33985,4.1122,4.1122,0,0,0,0,3.93945,3.49412,3.49412,0,0,0,1.39844,1.34961,4.185,4.185,0,0,0,2.01953.48242A4.24085,4.24085,0,0,0,92.882,32.31922Z"/><path d="M109.59733,25.12879a4.42509,4.42509,0,0,1,1.15234,3.2998v6.00879h-1.39843V28.56629a3.4355,3.4355,0,0,0-.80762-2.46191,3.03629,3.03629,0,0,0-2.30518-.84766,3.54045,3.54045,0,0,0-2.64941.99512,3.75556,3.75556,0,0,0-.9751,2.748v5.4375H101.215V24.07508h1.33984v1.91113a3.88355,3.88355,0,0,1,1.58594-1.46777,5.07838,5.07838,0,0,1,2.354-.52246A4.23423,4.23423,0,0,1,109.59733,25.12879Z"/><path d="M121.99821,19.8202h1.39844V34.43738h-1.39844Z"/><path d="M135.17692,25.01063a3.91974,3.91974,0,0,1,1.084,3.0039v6.42285h-1.33984V32.82215a3.21617,3.21617,0,0,1-1.38867,1.26074,4.86843,4.86843,0,0,1-2.17676.45313,4.26439,4.26439,0,0,1-2.75879-.82813,2.84667,2.84667,0,0,1-.06836-4.31348,4.67156,4.67156,0,0,1,3.04395-.80859h3.28906v-.62988a2.65711,2.65711,0,0,0-.74805-2.03906,3.09381,3.09381,0,0,0-2.18652-.69922,5.558,5.558,0,0,0-1.8916.32519,4.7679,4.7679,0,0,0-1.55664.89649l-.62988-1.04493a5.59208,5.59208,0,0,1,1.8916-1.03418,7.38126,7.38126,0,0,1,2.32422-.36425A4.38939,4.38939,0,0,1,135.17692,25.01063Zm-1.57617,7.87988a3.23246,3.23246,0,0,0,1.26074-1.56641V29.63074h-3.25q-2.66016,0-2.65918,1.85156a1.69167,1.69167,0,0,0,.68945,1.42774,3.13228,3.13228,0,0,0,1.93067.52246A3.68357,3.68357,0,0,0,133.60075,32.89051Z"/><path d="M149.18424,24.65613a4.721,4.721,0,0,1,1.85157,1.86133,5.93128,5.93128,0,0,1,0,5.47656,4.78013,4.78013,0,0,1-1.85157,1.87207,5.26566,5.26566,0,0,1-2.64013.66993,4.89232,4.89232,0,0,1-2.335-.55176,4.26386,4.26386,0,0,1-1.66407-1.59571v2.04883h-1.33984V19.8202h1.39844v6.2246a4.3066,4.3066,0,0,1,1.665-1.52636,4.90187,4.90187,0,0,1,2.27539-.52246A5.33057,5.33057,0,0,1,149.18424,24.65613Zm-.769,8.13575a3.54309,3.54309,0,0,0,1.39014-1.42774,4.677,4.677,0,0,0,0-4.21582,3.54551,3.54551,0,0,0-1.39014-1.42871,4.13489,4.13489,0,0,0-3.94922,0,3.56637,3.56637,0,0,0-1.3789,1.42871,4.66886,4.66886,0,0,0,0,4.21582,3.56389,3.56389,0,0,0,1.3789,1.42774,4.12789,4.12789,0,0,0,3.94922,0Z"/><path d="M42.779,15.99207a4.38609,4.38609,0,0,1-1.76562-1.626,4.431,4.431,0,0,1-.63526-2.35937,4.43584,4.43584,0,0,1,.63526-2.35938,4.38388,4.38388,0,0,1,1.76562-1.625,5.45566,5.45566,0,0,1,2.54932-.58593,4.93961,4.93961,0,0,1,2.45019.58593,3.4753,3.4753,0,0,1,1.52637,1.67481l-1.99658,1.07226a2.18281,2.18281,0,0,0-1.99658-1.2207,2.25749,2.25749,0,0,0-1.66651.66016,2.42845,2.42845,0,0,0-.66015,1.79785,2.43081,2.43081,0,0,0,.66015,1.79883,2.25748,2.25748,0,0,0,1.66651.66015A2.16,2.16,0,0,0,47.30827,13.244l1.99658,1.08985a3.54294,3.54294,0,0,1-1.52637,1.64941,4.8806,4.8806,0,0,1-2.45019.59375A5.45509,5.45509,0,0,1,42.779,15.99207Z"/><path d="M52.382,15.99207a4.35616,4.35616,0,0,1-1.74072-1.626,4.47419,4.47419,0,0,1-.627-2.35937,4.47913,4.47913,0,0,1,.627-2.35938,4.35392,4.35392,0,0,1,1.74072-1.625,5.67855,5.67855,0,0,1,5.02441,0,4.36652,4.36652,0,0,1,1.73242,1.625,4.47913,4.47913,0,0,1,.627,2.35938,4.47419,4.47419,0,0,1-.627,2.35937,4.3688,4.3688,0,0,1-1.73242,1.626,5.687,5.687,0,0,1-5.02441,0Zm4.1416-2.19531a2.4908,2.4908,0,0,0,.63525-1.79,2.4908,2.4908,0,0,0-.63525-1.79,2.14406,2.14406,0,0,0-1.625-.668,2.17162,2.17162,0,0,0-1.63379.668,2.47251,2.47251,0,0,0-.64355,1.79,2.47251,2.47251,0,0,0,.64355,1.79,2.16882,2.16882,0,0,0,1.63379.66894A2.14131,2.14131,0,0,0,56.5236,13.79676Z"/><path d="M69.54167,8.42664a3.92427,3.92427,0,0,1,1.01513,2.93652v5.082H67.98258V11.75965a2.31739,2.31739,0,0,0-.46191-1.57617A1.69357,1.69357,0,0,0,66.18424,9.664a2.04947,2.04947,0,0,0-1.55126.60253,2.49173,2.49173,0,0,0-.57715,1.79V16.4452H61.48161v-8.877H63.9401v1.04a3.40852,3.40852,0,0,1,1.27051-.86621,4.41461,4.41461,0,0,1,1.66651-.30566A3.65238,3.65238,0,0,1,69.54167,8.42664Z"/><path d="M81.52946,7.56824l-3.74561,8.877H75.1276l-3.729-8.877h2.65625l2.4585,6.03906,2.541-6.03906Z"/><path d="M90.98356,12.73328H84.26823a2.08622,2.08622,0,0,0,.85791,1.30274,2.83838,2.83838,0,0,0,1.6831.47851,3.40258,3.40258,0,0,0,1.229-.20605,2.969,2.969,0,0,0,.99853-.65137l1.36914,1.48437A4.60253,4.60253,0,0,1,86.74284,16.577a5.79169,5.79169,0,0,1-2.65625-.585,4.29425,4.29425,0,0,1-1.78223-1.626,4.47418,4.47418,0,0,1-.627-2.35937,4.53472,4.53472,0,0,1,.61914-2.35059,4.32677,4.32677,0,0,1,1.69922-1.63379A5.26306,5.26306,0,0,1,88.77262,7.997a4.10875,4.10875,0,0,1,1.65821,1.60938,4.79765,4.79765,0,0,1,.60205,2.43359C91.03288,12.07313,91.01676,12.30359,90.98356,12.73328ZM84.9611,9.87879a2.10763,2.10763,0,0,0-.72607,1.35254h4.37255a2.13228,2.13228,0,0,0-.72607-1.34473,2.17239,2.17239,0,0,0-1.45215-.50293A2.21572,2.21572,0,0,0,84.9611,9.87879Z"/><path d="M96.45329,7.76648a4.62832,4.62832,0,0,1,1.80713-.33007v2.376c-.28662-.02148-.47852-.0332-.57764-.0332a2.35649,2.35649,0,0,0-1.73242.61914,2.49847,2.49847,0,0,0-.627,1.85645V16.4452H92.74919v-8.877h2.45849V8.74012A2.86039,2.86039,0,0,1,96.45329,7.76648Z"/><path d="M108.86979,7.56824v7.39258a4.745,4.745,0,0,1-1.27051,3.62988,5.24677,5.24677,0,0,1-3.71289,1.1875,9.28563,9.28563,0,0,1-2.44189-.31347,5.34567,5.34567,0,0,1-1.91406-.90723l1.02295-1.84766a4.20083,4.20083,0,0,0,1.41943.7334,5.63877,5.63877,0,0,0,1.71582.27246,2.78289,2.78289,0,0,0,1.97168-.60156,2.40281,2.40281,0,0,0,.63525-1.82324V14.911a3.60036,3.60036,0,0,1-2.80517,1.10546,4.70918,4.70918,0,0,1-2.23535-.53613,4.08194,4.08194,0,0,1-1.60889-1.50976,4.22385,4.22385,0,0,1-.59424-2.24414,4.22388,4.22388,0,0,1,.59424-2.24415,4.08889,4.08889,0,0,1,1.60889-1.50976,4.70918,4.70918,0,0,1,2.23535-.53613,3.52374,3.52374,0,0,1,2.937,1.2705V7.56824Zm-3.19287,5.73438a2.04535,2.04535,0,0,0,.65186-1.57617,2.04824,2.04824,0,0,0-.65186-1.57618,2.37072,2.37072,0,0,0-1.6748-.60156,2.40063,2.40063,0,0,0-1.68311.60156,2.03625,2.03625,0,0,0-.66016,1.57618,2.03339,2.03339,0,0,0,.66016,1.57617,2.40063,2.40063,0,0,0,1.68311.60156A2.37072,2.37072,0,0,0,105.67692,13.30262Z"/><path d="M119.90837,12.73328H113.193a2.08626,2.08626,0,0,0,.85791,1.30274,2.83841,2.83841,0,0,0,1.68311.47851,3.40257,3.40257,0,0,0,1.229-.20605,2.96908,2.96908,0,0,0,.99854-.65137l1.36914,1.48437a4.60257,4.60257,0,0,1-3.66309,1.43555,5.79172,5.79172,0,0,1-2.65625-.585,4.29422,4.29422,0,0,1-1.78222-1.626,4.47419,4.47419,0,0,1-.627-2.35937,4.53481,4.53481,0,0,1,.61914-2.35059,4.32677,4.32677,0,0,1,1.69922-1.63379,5.26308,5.26308,0,0,1,4.77686-.02539,4.10873,4.10873,0,0,1,1.6582,1.60938,4.79755,4.79755,0,0,1,.602,2.43359C119.95768,12.07313,119.94157,12.30359,119.90837,12.73328ZM113.8859,9.87879a2.10768,2.10768,0,0,0-.72607,1.35254h4.37256a2.13237,2.13237,0,0,0-.72607-1.34473,2.17241,2.17241,0,0,0-1.45215-.50293A2.21575,2.21575,0,0,0,113.8859,9.87879Z"/><path d="M129.73356,8.42664a3.92406,3.92406,0,0,1,1.01465,2.93652v5.082H128.175V11.75965a2.31238,2.31238,0,0,0-.46289-1.57617,1.69181,1.69181,0,0,0-1.33594-.51953,2.04949,2.04949,0,0,0-1.55127.60253,2.49178,2.49178,0,0,0-.57715,1.79V16.4452H121.6735v-8.877h2.4585v1.04a3.40852,3.40852,0,0,1,1.27051-.86621,4.41381,4.41381,0,0,1,1.666-.30566A3.65277,3.65277,0,0,1,129.73356,8.42664Z"/><path d="M134.91423,15.99207a4.35339,4.35339,0,0,1-2.4004-3.98535,4.4311,4.4311,0,0,1,.63477-2.35938,4.38391,4.38391,0,0,1,1.76563-1.625,5.455,5.455,0,0,1,2.54882-.58593,4.94216,4.94216,0,0,1,2.45118.58593,3.46867,3.46867,0,0,1,1.52539,1.67481l-1.9961,1.07226a2.18311,2.18311,0,0,0-1.99609-1.2207,2.25627,2.25627,0,0,0-1.667.66016,2.42651,2.42651,0,0,0-.66016,1.79785,2.42887,2.42887,0,0,0,.66016,1.79883,2.25626,2.25626,0,0,0,1.667.66015,2.15928,2.15928,0,0,0,1.99609-1.22168l1.9961,1.08985a3.53592,3.53592,0,0,1-1.52539,1.64941,4.88311,4.88311,0,0,1-2.45118.59375A5.45441,5.45441,0,0,1,134.91423,15.99207Z"/><path d="M151.45671,12.73328H144.7404a2.08882,2.08882,0,0,0,.8584,1.30274,2.83888,2.83888,0,0,0,1.68261.47851,3.40526,3.40526,0,0,0,1.22949-.20605,2.95953,2.95953,0,0,0,.99854-.65137l1.37012,1.48437A4.60364,4.60364,0,0,1,147.216,16.577a5.79725,5.79725,0,0,1-2.65722-.585,4.29456,4.29456,0,0,1-1.78125-1.626,4.47419,4.47419,0,0,1-.627-2.35937,4.53871,4.53871,0,0,1,.61817-2.35059,4.33574,4.33574,0,0,1,1.70019-1.63379,5.26308,5.26308,0,0,1,4.77686-.02539,4.10272,4.10272,0,0,1,1.6582,1.60938,4.79776,4.79776,0,0,1,.60254,2.43359C151.50651,12.07313,151.48991,12.30359,151.45671,12.73328Zm-6.02295-2.85449a2.10493,2.10493,0,0,0-.72559,1.35254h4.37256a2.13234,2.13234,0,0,0-.72608-1.34473,2.175,2.175,0,0,0-1.45214-.50293A2.21613,2.21613,0,0,0,145.43376,9.87879Z"/></g><g id="columbia"><path class="cls-5" d="M197.2949,20.08123c-.83705,3.3752-2.83517,5.88635-6.6424,5.88635-5.18432,0-7.29044-5.0223-7.29044-9.39657,0-4.61728,2.26814-9.04555,7.50645-9.04555,3.59122,0,5.72435,2.40315,6.4534,5.72435l-2.13314.405c-.621-2.26813-1.7551-4.26625-4.42827-4.26625-3.88824,0-4.9413,4.26625-4.9413,7.34444a11.68585,11.68585,0,0,0,.83705,4.48227,4.5118,4.5118,0,0,0,3.99624,2.88918c2.72715,0,4.05024-2.05213,4.61727-4.42827Z"/><path class="cls-5" d="M205.5844,12.06174c-3.99624,0-6.10236,3.21319-6.10236,6.88542,0,3.48321,1.75511,6.99342,5.77836,6.99342,4.05024,0,6.15637-3.2672,6.15637-6.99342C211.44376,15.43694,209.49964,12.06174,205.5844,12.06174Zm2.94317,10.26062a3.39535,3.39535,0,0,1-5.96735.27,7.89243,7.89243,0,0,1-.756-3.64522,7.37906,7.37906,0,0,1,.64805-3.32121,3.31427,3.31427,0,0,1,2.99718-1.86311,3.50772,3.50772,0,0,1,2.88917,1.5931,6.79,6.79,0,0,1,.83705,3.64522A7.22975,7.22975,0,0,1,208.52757,22.32236Z"/><rect class="cls-5" x="214.71095" y="7.71448" width="2.05212" height="17.95609"/><path class="cls-5" d="M229.23783,25.67056V23.05141h-.027a4.50514,4.50514,0,0,1-4.07724,2.91617,4.20633,4.20633,0,0,1-3.3752-1.48509,6.2154,6.2154,0,0,1-1.05307-3.96924V12.38576h2.05212v8.07349a4.83485,4.83485,0,0,0,.432,2.40315,2.591,2.591,0,0,0,2.16013,1.26907,3.44047,3.44047,0,0,0,2.72716-1.37708,5.07239,5.07239,0,0,0,.99906-3.3482V12.38576h2.05212v13.3118h-1.8901Z"/><path class="cls-5" d="M236.63628,12.38576v2.56516h.027a4.4985,4.4985,0,0,1,3.96924-2.94318,3.79364,3.79364,0,0,1,3.75324,3.15919,4.6093,4.6093,0,0,1,4.29326-3.15919,3.9123,3.9123,0,0,1,3.34821,1.91711,7.52055,7.52055,0,0,1,.621,3.78023v7.93848h-2.05212V17.75909a6.055,6.055,0,0,0-.351-2.61916,2.48376,2.48376,0,0,0-2.24113-1.37709,3.29856,3.29856,0,0,0-2.56516,1.48509,5.01185,5.01185,0,0,0-.729,3.2672v7.18244h-2.05212V17.24605a4.28158,4.28158,0,0,0-.432-2.24113,2.63166,2.63166,0,0,0-2.24113-1.29608,3.35737,3.35737,0,0,0-2.40316,1.29608,4.72919,4.72919,0,0,0-.78305,3.02418v7.64146H234.7462V12.38576Z"/><path class="cls-5" d="M266.14907,14.22187a5.05239,5.05239,0,0,0-4.07724-2.16013,4.20788,4.20788,0,0,0-3.88824,2.51115h-.108V7.71448h-2.05211V25.67056h.99906l.756-2.26813a4.73821,4.73821,0,0,0,4.07724,2.51115c3.94223,0,5.56233-3.69922,5.56233-7.10143A8.48515,8.48515,0,0,0,266.14907,14.22187Zm-4.42828,10.09861a3.72433,3.72433,0,0,1-2.88917-1.51209,5.19428,5.19428,0,0,1-.756-2.67316V17.75908c.027-1.94411,1.5391-4.05024,3.64522-4.05024,2.80818,0,3.48322,3.2672,3.48322,5.48133S264.448,24.32048,261.72079,24.32048Z"/><rect class="cls-5" x="270.55033" y="7.71448" width="2.24113" height="2.29514"/><rect class="cls-5" x="270.65835" y="12.38576" width="2.05212" height="13.31181"/><path class="cls-5" d="M287.53437,22.86239V17.70508c0-1.51209,0-3.21319-1.08007-4.37426-.99906-1.16107-2.61916-1.29608-4.07724-1.29608-2.40315,0-5.37333.86405-5.72435,3.64522l1.91711.324c.351-1.83611,1.94412-2.34914,3.64522-2.34914,2.34915,0,3.37521.891,3.37521,3.21319v.567h-1.75511a12.37286,12.37286,0,0,0-5.0763.783,4.02769,4.02769,0,0,0-2.45715,3.67222c0,2.61916,2.13314,4.05025,4.61728,4.05025a4.75106,4.75106,0,0,0,4.64428-2.72716l.243,2.48414h2.05212A8.97563,8.97563,0,0,1,287.53437,22.86239Zm-1.99813-3.02418a4.33578,4.33578,0,0,1-4.21225,4.50927c-1.48509,0-2.88918-.675-2.88918-2.34914,0-2.72716,3.26719-3.02418,5.37334-3.02418h1.7011v.864Z"/><path class="cls-5" d="M187.57431,32.448c0-.432-.135-.837-.648-.837-.648,0-.675.837-.675,1.29608,0,.54.081,1.18807.72905,1.18807.432,0,.621-.351.64805-.729l.864.081a1.49155,1.49155,0,0,1-1.5931,1.40409,1.74893,1.74893,0,0,1-1.7011-1.97112,1.7688,1.7688,0,0,1,1.72811-1.97112,1.44589,1.44589,0,0,1,1.5391,1.48509Z"/><path class="cls-5" d="M195.8368,31.52992a1.38861,1.38861,0,0,0-1.21507-.567c-1.16107,0-1.64709.94506-1.64709,1.97112a2.34367,2.34367,0,0,0,.405,1.37709,1.4066,1.4066,0,0,0,1.21507.621,1.52587,1.52587,0,0,0,1.26908-.648,2.49063,2.49063,0,0,0,.351-1.32308A2.08283,2.08283,0,0,0,195.8368,31.52992Zm-.648,2.18713a.53016.53016,0,0,1-.567.432c-.648,0-.72905-.756-.72905-1.26908a2.49613,2.49613,0,0,1,.108-.783.56805.56805,0,0,1,.567-.432.52824.52824,0,0,1,.54.351,2.23508,2.23508,0,0,1,.135.86405A1.26757,1.26757,0,0,1,195.18877,33.71705Z"/><polygon class="cls-5" points="203.289 34.041 203.289 34.797 200.832 34.797 200.832 30.963 201.75 30.963 201.75 34.041 203.289 34.041"/><polygon class="cls-5" points="210.094 34.041 210.094 34.797 207.664 34.797 207.664 30.963 208.555 30.963 208.555 34.041 210.094 34.041"/><polygon class="cls-5" points="215.413 31.746 215.413 32.502 216.844 32.502 216.844 33.204 215.413 33.204 215.413 34.068 217.249 34.068 217.249 34.797 214.495 34.797 214.495 30.963 217.249 30.963 217.249 31.746 215.413 31.746"/><path class="cls-5" d="M223.18947,33.474V32.745h1.59311v2.05213h-.405l-.135-.432a1.29045,1.29045,0,0,1-1.05307.513c-1.10706,0-1.5931-.94506-1.5931-1.94412,0-1.05306.513-2.02512,1.64709-2.02512a1.43694,1.43694,0,0,1,1.51209,1.29608l-.86406.108c-.027-.405-.243-.72905-.675-.72905-.648,0-.72905.837-.72905,1.29608,0,.513.135,1.18807.756,1.18807a.62359.62359,0,0,0,.648-.648h-.729v.054Z"/><polygon class="cls-5" points="230.399 31.746 230.399 32.502 231.83 32.502 231.83 33.204 230.399 33.204 230.399 34.068 232.235 34.068 232.235 34.797 229.481 34.797 229.481 30.963 232.235 30.963 232.235 31.746 230.399 31.746"/><path class="cls-5" d="M242.46863,32.448c0-.432-.135-.837-.648-.837-.64805,0-.675.837-.675,1.29608,0,.54.081,1.18807.72905,1.18807.432,0,.621-.351.648-.729l.864.081a1.49155,1.49155,0,0,1-1.5931,1.40409,1.74893,1.74893,0,0,1-1.7011-1.97112,1.7688,1.7688,0,0,1,1.72811-1.97112,1.44589,1.44589,0,0,1,1.5391,1.48509Z"/><polygon class="cls-5" points="250.974 34.797 250.083 34.797 250.083 33.204 248.895 33.204 248.895 34.797 247.977 34.797 247.977 30.963 248.895 30.963 248.895 32.502 250.083 32.502 250.083 30.963 250.974 30.963 250.974 34.797"/><rect class="cls-5" x="255.72644" y="30.96288" width="0.89105" height="3.80723"/><path class="cls-5" d="M263.58391,32.448c0-.432-.135-.837-.648-.837-.64805,0-.675.837-.675,1.29608,0,.54.081,1.18807.729,1.18807.432,0,.621-.351.64805-.729l.86406.081a1.49156,1.49156,0,0,1-1.59311,1.40409,1.74894,1.74894,0,0,1-1.7011-1.97112,1.7688,1.7688,0,0,1,1.72811-1.97112A1.44588,1.44588,0,0,1,264.475,32.394Z"/><path class="cls-5" d="M271.11738,30.96288h-1.05307l-1.21508,3.80724h.78306l.243-.783h1.21507l.243.783h.97206ZM270.0913,33.312l.405-1.32308.405,1.32308Z"/><path class="cls-5" d="M278.19179,33.474V32.745h1.59311v2.05213h-.405l-.135-.432a1.29045,1.29045,0,0,1-1.05307.513c-1.10706,0-1.5931-.94506-1.5931-1.94412,0-1.05306.513-2.02512,1.64709-2.02512a1.4545,1.4545,0,0,1,1.51209,1.29608l-.86406.108c-.027-.405-.243-.72905-.675-.72905-.64805,0-.72905.837-.72905,1.29608,0,.513.135,1.18807.75605,1.18807a.62359.62359,0,0,0,.648-.648h-.729v.054Z"/><path class="cls-5" d="M287.21035,31.52992a1.38864,1.38864,0,0,0-1.21508-.567c-1.16107,0-1.64709.94506-1.64709,1.97112a2.34367,2.34367,0,0,0,.405,1.37709,1.40661,1.40661,0,0,0,1.21508.621,1.5259,1.5259,0,0,0,1.26908-.648,2.49071,2.49071,0,0,0,.351-1.32308A2.6223,2.6223,0,0,0,287.21035,31.52992Zm-.64805,2.18713a.53017.53017,0,0,1-.567.432c-.648,0-.72905-.756-.72905-1.26908a2.49613,2.49613,0,0,1,.108-.783.56805.56805,0,0,1,.567-.432.52826.52826,0,0,1,.54.351,2.23527,2.23527,0,0,1,.135.86405A2.16114,2.16114,0,0,1,286.5623,33.71705Z"/></g><rect id="separator" x="168.08311" y="3.03667" width="0.95039" height="35.92667"/></g></svg>