<svg xmlns="http://www.w3.org/2000/svg" viewBox="0 0 289.00829 42"><defs><style>.cls-1{fill:#fff;}.cls-2{fill:#97cf3e;}.cls-3{fill:#d43ccd;}.cls-4{fill:#ff9a21;}.cls-5{fill:#010101;}</style></defs><title>logo-lockup</title><g id="Lockup"><g id="convergence-circles"><path class="cls-1" d="M18.07829,12.06174A20.74528,20.74528,0,0,0,7.37289,28.26531a20.59859,20.59859,0,0,0,21.4108,0A20.74525,20.74525,0,0,0,18.07829,12.06174Z"/><path class="cls-2" d="M18.07829,4.954A10.87075,10.87075,0,0,0,7.20756,15.82483c0,.35505.01984.70527.0531,1.05158a10.85775,10.85775,0,0,0,5.20752,8.24682,10.851,10.851,0,0,1,16.42773-8.24682c.03327-.34631.05311-.69653.05311-1.05158A10.87076,10.87076,0,0,0,18.07829,4.954Z"/><path class="cls-3" d="M28.89591,16.87641a10.83336,10.83336,0,0,0-10.81762-.24457,10.87141,10.87141,0,0,1,5.61011,8.49139c.03326.34632.0531.69654.0531,1.05158a10.86707,10.86707,0,0,1-5.66321,9.543A10.86534,10.86534,0,0,0,28.89591,16.87641Z"/><path class="cls-4" d="M23.6884,25.12323A10.86976,10.86976,0,0,1,7.26066,16.87641a10.8656,10.8656,0,1,0,16.48084,9.2984C23.7415,25.81977,23.72166,25.46955,23.6884,25.12323Z"/></g><g id="convergence"><path d="M51.25651,19.8202V34.43738H49.91715V32.38855a4.27279,4.27279,0,0,1-1.665,1.59571,4.88766,4.88766,0,0,1-2.33448.55176,5.26259,5.26259,0,0,1-2.63965-.66993A4.78017,4.78017,0,0,1,41.42643,31.994a5.93128,5.93128,0,0,1,0-5.47656A4.72107,4.72107,0,0,1,43.278,24.65613a5.32745,5.32745,0,0,1,2.63965-.66015,4.9047,4.9047,0,0,1,2.27539.52246,4.31,4.31,0,0,1,1.665,1.52636V19.8202ZM47.99626,32.79188a3.5703,3.5703,0,0,0,1.3789-1.42774,4.67293,4.67293,0,0,0,0-4.21582,3.57279,3.57279,0,0,0-1.3789-1.42871,4.11659,4.11659,0,0,0-3.93994,0,3.56633,3.56633,0,0,0-1.37891,1.42871,4.67293,4.67293,0,0,0,0,4.21582,3.56385,3.56385,0,0,0,1.37891,1.42774,4.10962,4.10962,0,0,0,3.93994,0Z"/><path d="M65.32194,29.68934H56.654a3.70455,3.70455,0,0,0,1.24121,2.61035,4.1209,4.1209,0,0,0,2.83692.99511,4.47618,4.47618,0,0,0,1.77295-.34472A3.87234,3.87234,0,0,0,63.904,31.93543l.7876.90625a4.43531,4.43531,0,0,1-1.72363,1.26074,5.82685,5.82685,0,0,1-2.27539.4336,5.751,5.751,0,0,1-2.82666-.67969,4.89336,4.89336,0,0,1-1.9209-1.88184,5.35917,5.35917,0,0,1-.68946-2.71875A5.55725,5.55725,0,0,1,55.9152,26.537a4.7801,4.7801,0,0,1,1.8125-1.87109,5.06358,5.06358,0,0,1,2.59082-.66992,5.00964,5.00964,0,0,1,2.58057.66992,4.74738,4.74738,0,0,1,1.79248,1.86133,5.60472,5.60472,0,0,1,.65039,2.72851ZM57.8068,26.1532A3.75261,3.75261,0,0,0,56.654,28.64539h7.34815a3.75434,3.75434,0,0,0-1.15235-2.49219,3.806,3.806,0,0,0-5.043,0Z"/><path d="M69.70524,34.17078a5.17085,5.17085,0,0,1-1.80273-.916l.63037-1.10254a5.29951,5.29951,0,0,0,1.63525.83691,6.48964,6.48964,0,0,0,2.04883.3252,3.90668,3.90668,0,0,0,2.09766-.44336,1.41029,1.41029,0,0,0,.67968-1.251,1.12663,1.12663,0,0,0-.374-.89648,2.48092,2.48092,0,0,0-.9458-.49219,13.63738,13.63738,0,0,0-1.5166-.3252,17.3321,17.3321,0,0,1-2.0293-.48242,2.97815,2.97815,0,0,1-1.31006-.83789,2.32614,2.32614,0,0,1-.5415-1.63477,2.56189,2.56189,0,0,1,1.08349-2.12792,4.86783,4.86783,0,0,1,3.01368-.82715,7.84972,7.84972,0,0,1,2.00976.26562,5.5428,5.5428,0,0,1,1.65479.7002l-.61084,1.12207a5.23229,5.23229,0,0,0-3.05371-.88574,3.53862,3.53862,0,0,0-2.019.47265,1.44789,1.44789,0,0,0-.67968,1.24121,1.22415,1.22415,0,0,0,.38427.94531,2.35648,2.35648,0,0,0,.95557.52247,15.446,15.446,0,0,0,1.57568.34472,17.89719,17.89719,0,0,1,1.98975.47266,2.92289,2.92289,0,0,1,1.28076.80762,2.22339,2.22339,0,0,1,.53174,1.57617,2.5075,2.5075,0,0,1-1.13281,2.15722,5.39076,5.39076,0,0,1-3.14209.79786A7.94639,7.94639,0,0,1,69.70524,34.17078Z"/><path d="M80.09684,21.51355a.96358.96358,0,0,1-.29541-.709.94417.94417,0,0,1,.29541-.68945.98854.98854,0,0,1,.729-.29492,1.00717,1.00717,0,0,1,.72851.28515.91264.91264,0,0,1,.2959.67969,1.03066,1.03066,0,0,1-1.75342.72851Zm.01953,2.56153H81.5153v10.3623H80.11637Z"/><path d="M96.15251,24.07508v9.10156A5.276,5.276,0,0,1,94.862,37.0868a5.33573,5.33573,0,0,1-3.89063,1.2705,8.69439,8.69439,0,0,1-2.72851-.42285,5.62444,5.62444,0,0,1-2.09815-1.17285l.709-1.06347a5.3176,5.3176,0,0,0,1.82226,1.04394,6.79214,6.79214,0,0,0,2.25586.375,3.97882,3.97882,0,0,0,2.896-.917,3.856,3.856,0,0,0,.92578-2.84668V32.03406a4.22207,4.22207,0,0,1-1.7041,1.49707,5.26523,5.26523,0,0,1-2.33447.51172,5.50719,5.50719,0,0,1-2.64942-.63965,4.724,4.724,0,0,1-1.87158-1.793,5.0421,5.0421,0,0,1-.67969-2.61035A4.98937,4.98937,0,0,1,86.194,26.3993a4.69473,4.69473,0,0,1,1.86133-1.77246A5.55616,5.55616,0,0,1,90.715,23.996a5.25729,5.25729,0,0,1,2.38379.53222,4.29559,4.29559,0,0,1,1.71386,1.53614V24.07508ZM92.882,32.31922a3.48369,3.48369,0,0,0,1.40869-1.34961,3.8533,3.8533,0,0,0,.50244-1.96973,3.80222,3.80222,0,0,0-.50244-1.96,3.52693,3.52693,0,0,0-1.39893-1.33984,4.54962,4.54962,0,0,0-4.0581-.00977,3.43273,3.43273,0,0,0-1.39844,1.33985,4.1122,4.1122,0,0,0,0,3.93945,3.49412,3.49412,0,0,0,1.39844,1.34961,4.185,4.185,0,0,0,2.01953.48242A4.24085,4.24085,0,0,0,92.882,32.31922Z"/><path d="M109.59733,25.12879a4.42509,4.42509,0,0,1,1.15234,3.2998v6.00879h-1.39843V28.56629a3.4355,3.4355,0,0,0-.80762-2.46191,3.03629,3.03629,0,0,0-2.30518-.84766,3.54045,3.54045,0,0,0-2.64941.99512,3.75556,3.75556,0,0,0-.9751,2.748v5.4375H101.215V24.07508h1.33984v1.91113a3.88355,3.88355,0,0,1,1.58594-1.46777,5.07838,5.07838,0,0,1,2.354-.52246A4.23423,4.23423,0,0,1,109.59733,25.12879Z"/><path d="M121.99821,19.8202h1.39844V34.43738h-1.39844Z"/><path d="M135.17692,25.01063a3.91974,3.91974,0,0,1,1.084,3.0039v6.42285h-1.33984V32.82215a3.21617,3.21617,0,0,1-1.38867,1.26074,4.86843,4.86843,0,0,1-2.17676.45313,4.26439,4.26439,0,0,1-2.75879-.82813,2.84667,2.84667,0,0,1-.06836-4.31348,4.67156,4.67156,0,0,1,3.04395-.80859h3.28906v-.62988a2.65711,2.65711,0,0,0-.74805-2.03906,3.09381,3.09381,0,0,0-2.18652-.69922,5.558,5.558,0,0,0-1.8916.32519,4.7679,4.7679,0,0,0-1.55664.89649l-.62988-1.04493a5.59208,5.59208,0,0,1,1.8916-1.03418,7.38126,7.38126,0,0,1,2.32422-.36425A4.38939,4.38939,0,0,1,135.17692,25.01063Zm-1.57617,7.87988a3.23246,3.23246,0,0,0,1.26074-1.56641V29.63074h-3.25q-2.66016,0-2.65918,1.85156a1.69167,1.69167,0,0,0,.68945,1.42774,3.13228,3.13228,0,0,0,1.93067.52246A3.68357,3.68357,0,0,0,133.60075,32.89051Z"/><path d="M149.18424,24.65613a4.721,4.721,0,0,1,1.85157,1.86133,5.93128,5.93128,0,0,1,0,5.47656,4.78013,4.78013,0,0,1-1.85157,1.87207,5.26566,5.26566,0,0,1-2.64013.66993,4.89232,4.89232,0,0,1-2.335-.55176,4.26386,4.26386,0,0,1-1.66407-1.59571v2.04883h-1.33984V19.8202h1.39844v6.2246a4.3066,4.3066,0,0,1,1.665-1.52636,4.90187,4.90187,0,0,1,2.27539-.52246A5.33057,5.33057,0,0,1,149.18424,24.65613Zm-.769,8.13575a3.54309,3.54309,0,0,0,1.39014-1.42774,4.677,4.677,0,0,0,0-4.21582,3.54551,3.54551,0,0,0-1.39014-1.42871,4.13489,4.13489,0,0,0-3.94922,0,3.56637,3.56637,0,0,0-1.3789,1.42871,4.66886,4.66886,0,0,0,0,4.21582,3.56389,3.56389,0,0,0,1.3789,1.42774,4.12789,4.12789,0,0,0,3.94922,0Z"/><path d="M42.779,15.99207a4.38609,4.38609,0,0,1-1.76562-1.626,4.431,4.431,0,0,1-.63526-2.35937,4.43584,4.43584,0,0,1,.63526-2.35938,4.38388,4.38388,0,0,1,1.76562-1.625,5.45566,5.45566,0,0,1,2.54932-.58593,4.93961,4.93961,0,0,1,2.45019.58593,3.4753,3.4753,0,0,1,1.52637,1.67481l-1.99658,1.07226a2.18281,2.18281,0,0,0-1.99658-1.2207,2.25749,2.25749,0,0,0-1.66651.66016,2.42845,2.42845,0,0,0-.66015,1.79785,2.43081,2.43081,0,0,0,.66015,1.79883,2.25748,2.25748,0,0,0,1.66651.66015A2.16,2.16,0,0,0,47.30827,13.244l1.99658,1.08985a3.54294,3.54294,0,0,1-1.52637,1.64941,4.8806,4.8806,0,0,1-2.45019.59375A5.45509,5.45509,0,0,1,42.779,15.99207Z"/><path d="M52.382,15.99207a4.35616,4.35616,0,0,1-1.74072-1.626,4.47419,4.47419,0,0,1-.627-2.35937,4.47913,4.47913,0,0,1,.627-2.35938,4.35392,4.35392,0,0,1,1.74072-1.625,5.67855,5.67855,0,0,1,5.02441,0,4.36652,4.36652,0,0,1,1.73242,1.625,4.47913,4.47913,0,0,1,.627,2.35938,4.47419,4.47419,0,0,1-.627,2.35937,4.3688,4.3688,0,0,1-1.73242,1.626,5.687,5.687,0,0,1-5.02441,0Zm4.1416-2.19531a2.4908,2.4908,0,0,0,.63525-1.79,2.4908,2.4908,0,0,0-.63525-1.79,2.14406,2.14406,0,0,0-1.625-.668,2.17162,2.17162,0,0,0-1.63379.668,2.47251,2.47251,0,0,0-.64355,1.79,2.47251,2.47251,0,0,0,.64355,1.79,2.16882,2.16882,0,0,0,1.63379.66894A2.14131,2.14131,0,0,0,56.5236,13.79676Z"/><path d="M69.54167,8.42664a3.92427,3.92427,0,0,1,1.01513,2.93652v5.082H67.98258V11.75965a2.31739,2.31739,0,0,0-.46191-1.57617A1.69357,1.69357,0,0,0,66.18424,9.664a2.04947,2.04947,0,0,0-1.55126.60253,2.49173,2.49173,0,0,0-.57715,1.79V16.4452H61.48161v-8.877H63.9401v1.04a3.40852,3.40852,0,0,1,1.27051-.86621,4.41461,4.41461,0,0,1,1.66651-.30566A3.65238,3.65238,0,0,1,69.54167,8.42664Z"/><path d="M81.52946,7.56824l-3.74561,8.877H75.1276l-3.729-8.877h2.65625l2.4585,6.03906,2.541-6.03906Z"/><path d="M90.98356,12.73328H84.26823a2.08622,2.08622,0,0,0,.85791,1.30274,2.83838,2.83838,0,0,0,1.6831.47851,3.40258,3.40258,0,0,0,1.229-.20605,2.969,2.969,0,0,0,.99853-.65137l1.36914,1.48437A4.60253,4.60253,0,0,1,86.74284,16.577a5.79169,5.79169,0,0,1-2.65625-.585,4.29425,4.29425,0,0,1-1.78223-1.626,4.47418,4.47418,0,0,1-.627-2.35937,4.53472,4.53472,0,0,1,.61914-2.35059,4.32677,4.32677,0,0,1,1.69922-1.63379A5.26306,5.26306,0,0,1,88.77262,7.997a4.10875,4.10875,0,0,1,1.65821,1.60938,4.79765,4.79765,0,0,1,.60205,2.43359C91.03288,12.07313,91.01676,12.30359,90.98356,12.73328ZM84.9611,9.87879a2.10763,2.10763,0,0,0-.72607,1.35254h4.37255a2.13228,2.13228,0,0,0-.72607-1.34473,2.17239,2.17239,0,0,0-1.45215-.50293A2.21572,2.21572,0,0,0,84.9611,9.87879Z"/><path d="M96.45329,7.76648a4.62832,4.62832,0,0,1,1.80713-.33007v2.376c-.28662-.02148-.47852-.0332-.57764-.0332a2.35649,2.35649,0,0,0-1.73242.61914,2.49847,2.49847,0,0,0-.627,1.85645V16.4452H92.74919v-8.877h2.45849V8.74012A2.86039,2.86039,0,0,1,96.45329,7.76648Z"/><path d="M108.86979,7.56824v7.39258a4.745,4.745,0,0,1-1.27051,3.62988,5.24677,5.24677,0,0,1-3.71289,1.1875,9.28563,9.28563,0,0,1-2.44189-.31347,5.34567,5.34567,0,0,1-1.91406-.90723l1.02295-1.84766a4.20083,4.20083,0,0,0,1.41943.7334,5.63877,5.63877,0,0,0,1.71582.27246,2.78289,2.78289,0,0,0,1.97168-.60156,2.40281,2.40281,0,0,0,.63525-1.82324V14.911a3.60036,3.60036,0,0,1-2.80517,1.10546,4.70918,4.70918,0,0,1-2.23535-.53613,4.08194,4.08194,0,0,1-1.60889-1.50976,4.22385,4.22385,0,0,1-.59424-2.24414,4.22388,4.22388,0,0,1,.59424-2.24415,4.08889,4.08889,0,0,1,1.60889-1.50976,4.70918,4.70918,0,0,1,2.23535-.53613,3.52374,3.52374,0,0,1,2.937,1.2705V7.56824Zm-3.19287,5.73438a2.04535,2.04535,0,0,0,.65186-1.57617,2.04824,2.04824,0,0,0-.65186-1.57618,2.37072,2.37072,0,0,0-1.6748-.60156,2.40063,2.40063,0,0,0-1.68311.60156,2.03625,2.03625,0,0,0-.66016,1.57618,2.03339,2.03339,0,0,0,.66016,1.57617,2.40063,2.40063,0,0,0,1.68311.60156A2.37072,2.37072,0,0,0,105.67692,13.30262Z"/><path d="M119.90837,12.73328H113.193a2.08626,2.08626,0,0,0,.85791,1.30274,2.83841,2.83841,0,0,0,1.68311.47851,3.40257,3.40257,0,0,0,1.229-.20605,2.96908,2.96908,0,0,0,.99854-.65137l1.36914,1.48437a4.60257,4.60257,0,0,1-3.66309,1.43555,5.79172,5.79172,0,0,1-2.65625-.585,4.29422,4.29422,0,0,1-1.78222-1.626,4.47419,4.47419,0,0,1-.627-2.35937,4.53481,4.53481,0,0,1,.61914-2.35059,4.32677,4.32677,0,0,1,1.69922-1.63379,5.26308,5.26308,0,0,1,4.77686-.02539,4.10873,4.10873,0,0,1,1.6582,1.60938,4.79755,4.79755,0,0,1,.602,2.43359C119.95768,12.07313,119.94157,12.30359,119.90837,12.73328ZM113.8859,9.87879a2.10768,2.10768,0,0,0-.72607,1.35254h4.37256a2.13237,2.13237,0,0,0-.72607-1.34473,2.17241,2.17241,0,0,0-1.45215-.50293A2.21575,2.21575,0,0,0,113.8859,9.87879Z"/><path d="M129.73356,8.42664a3.92406,3.92406,0,0,1,1.01465,2.93652v5.082H128.175V11.75965a2.31238,2.31238,0,0,0-.46289-1.57617,1.69181,1.69181,0,0,0-1.33594-.51953,2.04949,2.04949,0,0,0-1.55127.60253,2.49178,2.49178,0,0,0-.57715,1.79V16.4452H121.6735v-8.877h2.4585v1.04a3.40852,3.40852,0,0,1,1.27051-.86621,4.41381,4.41381,0,0,1,1.666-.30566A3.65277,3.65277,0,0,1,129.73356,8.42664Z"/><path d="M134.91423,15.99207a4.35339,4.35339,0,0,1-2.4004-3.98535,4.4311,4.4311,0,0,1,.63477-2.35938,4.38391,4.38391,0,0,1,1.76563-1.625,5.455,5.455,0,0,1,2.54882-.58593,4.94216,4.94216,0,0,1,2.45118.58593,3.46867,3.46867,0,0,1,1.52539,1.67481l-1.9961,1.07226a2.18311,2.18311,0,0,0-1.99609-1.2207,2.25627,2.25627,0,0,0-1.667.66016,2.42651,2.42651,0,0,0-.66016,1.79785,2.42887,2.42887,0,0,0,.66016,1.79883,2.25626,2.25626,0,0,0,1.667.66015,2.15928,2.15928,0,0,0,1.99609-1.22168l1.9961,1.08985a3.53592,3.53592,0,0,1-1.52539,1.64941,4.88311,4.88311,0,0,1-2.45118.59375A5.45441,5.45441,0,0,1,134.91423,15.99207Z"/><path d="M151.45671,12.73328H144.7404a2.08882,2.08882,0,0,0,.8584,1.30274,2.83888,2.83888,0,0,0,1.68261.47851,3.40526,3.40526,0,0,0,1.22949-.20605,2.95953,2.95953,0,0,0,.99854-.65137l1.37012,1.48437A4.60364,4.60364,0,0,1,147.216,16.577a5.79725,5.79725,0,0,1-2.65722-.585,4.29456,4.29456,0,0,1-1.78125-1.626,4.47419,4.47419,0,0,1-.627-2.35937,4.53871,4.53871,0,0,1,.61817-2.35059,4.33574,4.33574,0,0,1,1.70019-1.63379,5.26308,5.26308,0,0,1,4.77686-.02539,4.10272,4.10272,0,0,1,1.6582,1.60938,4.79776,4.79776,0,0,1,.60254,2.43359C151.50651,12.07313,151.48991,12.30359,151.45671,12.73328Zm-6.02295-2.85449a2.10493,2.10493,0,0,0-.72559,1.35254h4.37256a2.13234,2.13234,0,0,0-.72608-1.34473,2.175,2.175,0,0,0-1.45214-.50293A2.21613,2.21613,0,0,0,145.43376,9.87879Z"/></g><g id="columbia"><path class="cls-5" d="M183.46224,31.96057c0-1.46354.82059-2.25451,1.91832-2.25451a1.59466,1.59466,0,0,1,1.69386,1.35738l-.70241.2008c-.1652-.57831-.41908-.87339-.99738-.87339-.7377,0-1.16861.57238-1.16861,1.5638,0,1.03884.44263,1.61123,1.18034,1.61123.56657,0,.88526-.28323,1.0506-.93834l.70227.15927a1.69379,1.69379,0,0,1-1.75867,1.452c-1.12145,0-1.91832-.77314-1.91832-2.27823Z"/><path class="cls-5" d="M194.02741,31.97243c0-1.027-.48979-1.58751-1.22171-1.58751-.74365,0-1.23344.56049-1.23344,1.58751s.48979,1.59937,1.23344,1.59937c.73192,0,1.22171-.57234,1.22171-1.59937Zm-3.19878,0a1.99048,1.99048,0,1,1,3.94254,0,1.99048,1.99048,0,1,1-3.94254,0Z"/><polygon class="cls-5" points="198.744 29.789 199.481 29.789 199.481 33.483 201.494 33.483 201.494 34.156 198.744 34.156 198.744 29.789 198.744 29.789"/><polygon class="cls-5" points="205.348 29.789 206.086 29.789 206.086 33.483 208.099 33.483 208.099 34.156 205.348 34.156 205.348 29.789 205.348 29.789"/><polygon class="cls-5" points="211.953 29.789 214.774 29.789 214.774 30.473 212.691 30.473 212.691 31.559 214.22 31.559 214.22 32.214 212.691 32.214 212.691 33.483 214.892 33.483 214.892 34.156 211.953 34.156 211.953 29.789 211.953 29.789"/><path class="cls-5" d="M218.53989,31.95465c0-1.39861.76163-2.24859,1.92433-2.24859a1.61507,1.61507,0,0,1,1.69357,1.3752l-.68443.183c-.19489-.65512-.4959-.87339-1.01522-.87339s-1.17454.3185-1.17454,1.54628c0,1.22156.58438,1.64063,1.204,1.64063a.96272.96272,0,0,0,1.02129-.9855h-.87961v-.59611h1.58776v2.15992h-.6081v-.63139h-.01156a1.25914,1.25914,0,0,1-1.19219.71412c-1.25147,0-1.86534-.95019-1.86534-2.28415Z"/><polygon class="cls-5" points="226.225 29.789 229.046 29.789 229.046 30.473 226.963 30.473 226.963 31.559 228.491 31.559 228.491 32.214 226.963 32.214 226.963 33.483 229.164 33.483 229.164 34.156 226.225 34.156 226.225 29.789 226.225 29.789"/><path class="cls-5" d="M238.53755,31.96057c0-1.46354.82032-2.25451,1.91795-2.25451a1.59474,1.59474,0,0,1,1.69387,1.35738l-.70235.2008c-.1654-.57831-.419-.87339-.9973-.87339-.73792,0-1.16876.57238-1.16876,1.5638,0,1.03884.4427,1.61123,1.18033,1.61123.56674,0,.88568-.28323,1.05079-.93834l.70235.15927a1.69421,1.69421,0,0,1-1.75893,1.452c-1.12134,0-1.91795-.77314-1.91795-2.27823Z"/><polygon class="cls-5" points="246.34 29.789 247.078 29.789 247.078 31.53 249.061 31.53 249.061 29.789 249.799 29.789 249.799 34.156 249.061 34.156 249.061 32.214 247.078 32.214 247.078 34.156 246.34 34.156 246.34 29.789 246.34 29.789"/><polygon class="cls-5" points="254.314 29.789 255.058 29.789 255.058 34.156 254.314 34.156 254.314 29.789 254.314 29.789"/><path class="cls-5" d="M259.47928,31.96057c0-1.46354.82-2.25451,1.918-2.25451a1.59436,1.59436,0,0,1,1.69387,1.35738l-.70236.2008c-.1651-.57831-.419-.87339-.9973-.87339-.73793,0-1.16848.57238-1.16848,1.5638,0,1.03884.44241,1.61123,1.18034,1.61123.56644,0,.88511-.28323,1.0505-.93834l.70207.15927a1.69353,1.69353,0,0,1-1.75864,1.452c-1.12163,0-1.918-.77314-1.918-2.27823Z"/><path class="cls-5" d="M269.3065,32.46827l-.59625-1.77078h-.01184l-.60781,1.77078Zm-.94439-2.69725h.72608l1.54639,4.38505h-.75584l-.35393-1.03859h-1.65859l-.36,1.03859H266.816l1.54611-4.385Z"/><path class="cls-5" d="M274.09923,31.95465c0-1.39861.76163-2.24859,1.924-2.24859a1.61564,1.61564,0,0,1,1.69416,1.3752l-.68472.183c-.1949-.65512-.4959-.87339-1.01522-.87339s-1.17454.3185-1.17454,1.54628c0,1.22156.58437,1.64063,1.204,1.64063a.96271.96271,0,0,0,1.02128-.9855h-.8796v-.59611h1.58774v2.15992h-.60808v-.63139h-.01186a1.25848,1.25848,0,0,1-1.19218.71412c-1.25118,0-1.86506-.95019-1.86506-2.28415Z"/><path class="cls-5" d="M284.93589,31.97243c0-1.027-.48983-1.58751-1.22169-1.58751-.74369,0-1.23352.56049-1.23352,1.58751s.48983,1.59937,1.23352,1.59937c.73186,0,1.22169-.57234,1.22169-1.59937Zm-3.19892,0a1.99052,1.99052,0,1,1,3.94262,0,1.99052,1.99052,0,1,1-3.94262,0Z"/><polygon class="cls-5" points="212.318 25.409 212.318 7.629 215.33 7.629 215.33 25.409 212.318 25.409 212.318 25.409"/><path class="cls-5" d="M231.75166,12.293h2.915v2.79341c.58293-1.12146,1.569-3.07057,4.3992-3.07057a3.788,3.788,0,0,1,3.80152,3.07057,4.99822,4.99822,0,0,1,4.38387-3.07057c2.88374,0,4.224,2.02932,4.224,4.88625V25.4094h-3.109V17.70305c0-1.65544-.292-2.99038-2.24095-2.99038-1.46862,0-2.90889.96107-2.90889,3.84484V25.4094h-3.109V17.24926c0-1.01471-.29175-2.59-2.134-2.59-1.46891,0-3.0153,1.09462-3.0153,4.37884V25.4094h-3.20644V12.293Z"/><path class="cls-5" d="M268.47951,25.4094V12.293h3.01183V25.4094Zm0-14.67108v-3.109h3.01183v3.109Z"/><path class="cls-5" d="M282.79007,21.29094V18.76521a15.85878,15.85878,0,0,0-2.04721.18609c-2.36616.39886-3.77522,1.24965-3.77522,2.71182,0,1.27606.79778,1.86114,2.20656,1.86114a3.94649,3.94649,0,0,0,3.61587-2.23332Zm-8.98607.66471c0-2.89791,2.57868-4.28041,6.69944-4.759.718-.07978,1.48885-.13287,2.28663-.15942a5.01256,5.01256,0,0,0-.05321-.93055c-.15961-1.24953-.85068-1.91412-2.60557-1.91412-1.861,0-2.84471.53158-3.16365,1.94067l-2.81809-.29242c.53175-2.499,2.68508-3.82833,6.168-3.82833,4.25375,0,5.42367,1.88754,5.42367,4.99807v5.849a8.73649,8.73649,0,0,0,.29234,2.55241h-2.95111a5.10442,5.10442,0,0,1-.23943-1.86115,5.81076,5.81076,0,0,1-4.865,2.02041c-2.39276,0-4.174-1.30261-4.174-3.61556Z"/><path class="cls-5" d="M263.12378,18.87887c0-3.1447-.853-4.63777-2.7192-4.63777-1.6531,0-2.48009,1.17312-3.09309,2.45286v3.0655c0,2.61269,1.17311,3.812,3.01212,3.812,1.91971,0,2.80017-1.332,2.80017-4.69255Zm-6.3987,4.47907-.61388,2.05371h-1.83873V7.62908h3.01213v6.87746a4.78567,4.78567,0,0,1,4.13288-2.49807c3.09281,0,4.85231,2.33938,4.85231,6.7638,0,4.58567-2.13281,6.8252-5.25279,6.8252a4.64984,4.64984,0,0,1-4.29192-2.23953Z"/><path class="cls-5" d="M217.87744,21.26891V12.293h3.08036v8.89688c0,1.64541.66333,2.28274,2.12443,2.28274a3.4358,3.4358,0,0,0,2.86812-1.96394V12.293H229.031V25.41165h-2.94823l.02718-2.04524a4.74058,4.74058,0,0,1-4.32922,2.25789c-2.15045,0-3.9033-1.16847-3.9033-4.35539Z"/><path class="cls-5" d="M206.93178,18.77833c0-3.10459-1.19361-4.56491-3.07849-4.56491-1.83067,0-3.05151,1.48629-3.05151,4.592,0,3.05136,1.1147,4.67109,3.05151,4.67109,1.83179,0,3.07849-1.45905,3.07849-4.69822Zm-9.39372.05436c0-4.08842,2.7601-6.82138,6.31523-6.82138,3.8217,0,6.34362,2.733,6.34362,6.82138,0,3.9797-2.73427,6.767-6.39558,6.767-3.63647,0-6.26327-2.76024-6.26327-6.767Z"/><path class="cls-5" d="M195.73591,19.523c-.69,4.67-3.90076,6.07621-6.71336,6.07621-5.94379,0-7.08473-6.07621-7.08473-9.12786,0-4.59033,2.12277-9.10131,7.19087-9.10131,3.76807,0,5.97032,2.38821,6.60722,6.26216l-2.97188.31836c-.3185-1.40625-.92888-4.00665-3.60879-4.00665-3.55553,0-3.76789,4.85579-3.76789,6.44795,0,5.06824,2.0166,6.52759,3.8742,6.52759,1.67156,0,3.237-1.3269,3.50248-3.7415l2.97188.34505Z"/></g><rect id="separator" x="166.33128" y="3.03667" width="0.95039" height="35.92667"/></g></svg>