<svg id="Layer_1" data-name="Layer 1" xmlns="http://www.w3.org/2000/svg" viewBox="0 0 200 200"><defs><style>.cls-1{fill:none;}.cls-1,.cls-2,.cls-3,.cls-4,.cls-5{stroke:#242422;stroke-miterlimit:10;stroke-width:5px;}.cls-2{fill:#ff9a21;}.cls-3{fill:#fff;}.cls-4{fill:#d43ccd;}.cls-5{fill:#97cf3e;}</style></defs><title>facilitation</title><g id="PD_Facilitation" data-name="PD &amp; Facilitation"><circle class="cls-1" cx="100.64" cy="105.31" r="63.04"/><circle class="cls-2" cx="100" cy="57.88" r="40.37"/><circle class="cls-3" cx="100" cy="47.5" r="11.67"/><path class="cls-3" d="M100,59.21A20.12,20.12,0,0,0,80.75,74.3a4.48,4.48,0,0,0,4.36,5.63h29.78a4.48,4.48,0,0,0,4.36-5.63A20.12,20.12,0,0,0,100,59.21Z"/><circle class="cls-4" cx="151.34" cy="142.12" r="40.37"/><circle class="cls-3" cx="151.34" cy="131.74" r="11.67"/><path class="cls-3" d="M151.34,143.45a20.13,20.13,0,0,0-19.26,15.09,4.48,4.48,0,0,0,4.37,5.63h29.77a4.48,4.48,0,0,0,4.37-5.63A20.13,20.13,0,0,0,151.34,143.45Z"/><circle class="cls-5" cx="48.66" cy="142.12" r="40.37"/><circle class="cls-3" cx="48.66" cy="131.74" r="11.67"/><path class="cls-3" d="M48.66,143.45a20.13,20.13,0,0,0-19.25,15.09,4.48,4.48,0,0,0,4.37,5.63H63.55a4.48,4.48,0,0,0,4.37-5.63A20.13,20.13,0,0,0,48.66,143.45Z"/></g></svg>