<svg id="Layer_1" data-name="Layer 1" xmlns="http://www.w3.org/2000/svg" viewBox="0 0 200 200"><defs><style>.cls-1{fill:#fff;}.cls-1,.cls-2{stroke:#242422;stroke-miterlimit:10;stroke-width:5px;}.cls-2{fill:#ff9a21;}</style></defs><title>learning</title><g id="Learning_Experience_Design" data-name="Learning Experience Design"><rect class="cls-1" x="73.23" y="-12.87" width="53.53" height="225.74" rx="8.23" ry="8.23" transform="translate(100 -41.42) rotate(45)"/><line class="cls-1" x1="18.39" y1="144.58" x2="33.46" y2="159.65"/><line class="cls-1" x1="34.03" y1="128.94" x2="44.9" y2="139.8"/><line class="cls-1" x1="49.67" y1="113.3" x2="64.75" y2="128.37"/><line class="cls-1" x1="65.32" y1="97.65" x2="76.18" y2="108.52"/><line class="cls-1" x1="80.96" y1="82.01" x2="96.03" y2="97.08"/><line class="cls-1" x1="96.6" y1="66.37" x2="107.47" y2="77.23"/><line class="cls-1" x1="112.24" y1="50.73" x2="127.32" y2="65.8"/><line class="cls-1" x1="127.89" y1="35.08" x2="138.75" y2="45.95"/><line class="cls-1" x1="143.53" y1="19.44" x2="158.6" y2="34.51"/><path class="cls-2" d="M17.41,47.94C21,8.89,53.86,12.06,53.86,12.06L171.77,138,159,143.63l-4.59,14.43-12.49,4.22-4.59,13.37Z"/><path class="cls-2" d="M160.29,181.76C165.54,164.17,179,161,179,161l5.44,20.53a3.43,3.43,0,0,1-3.79,4.42Z"/></g></svg>