<svg id="Layer_1" data-name="Layer 1" xmlns="http://www.w3.org/2000/svg" viewBox="0 0 200 200"><defs><style>.cls-1{fill:#d43ccd;stroke:#242422;stroke-miterlimit:10;stroke-width:5px;}</style></defs><title>par</title><g id="PAR"><path class="cls-1" d="M149.25,127.19c-.47,3-.79,7.45-1.94,11.64-1.86,6.77-7,9.38-13.25,6.82a55.79,55.79,0,0,1-9.18-5.16c-7.58-5-15.49-9-24.37-10.53a62.85,62.85,0,0,0-21.8-.23,12.46,12.46,0,0,0-4.26,1.67A5.91,5.91,0,0,0,71.79,139c2.47,6.64,5.15,13.2,7.91,19.71a9.18,9.18,0,0,0,2.73,2.94c1,.82,2.15,1.36,3.16,2.14,3.53,2.76,3.29,7.83-.69,9.69-5.79,2.7-11.72,5-17.63,7.44a4.11,4.11,0,0,1-4.84-1.13,33.21,33.21,0,0,1-5-7.22c-3.1-6.83-5.88-13.83-8.68-20.82a6.17,6.17,0,0,0-5.08-4.28,13.15,13.15,0,0,1-8-4.32,3.69,3.69,0,0,0-2.54-.62,5.24,5.24,0,0,0-2.16.76c-6.3,3.3-11.87,1.47-17.12-2.68-8.39-6.63-10.78-18.86-5.62-28.5a12.86,12.86,0,0,1,6.57-5.83A207.66,207.66,0,0,0,46.7,89.39C56.88,82.71,66.21,75,73.42,64.69,79,56.76,81.94,47.74,83.89,38.21a56.44,56.44,0,0,1,3-10.3,8.75,8.75,0,0,1,11.15-5.19c4,1.2,7.21,3.76,10.25,6.6,8.77,8.2,15.34,18.23,21.12,28.87a163.74,163.74,0,0,1,18.85,57.46C148.7,119,148.85,122.39,149.25,127.19Zm-14.64-7.94-.28,0c0-1.32,0-2.65,0-4,0-.44-.06-.88-.11-1.32C131.17,88.37,121.07,66.23,105.06,47a37.35,37.35,0,0,0-4.58-4.49c-2.56-2.17-3.55-1.75-4.09,1.6A28.53,28.53,0,0,0,96,48.72c.2,27.07,9,50.67,25.85,70.88a58.94,58.94,0,0,0,8.83,8c1.85,1.47,2.9.89,3.31-1.57C134.34,123.81,134.41,121.51,134.61,119.25Z"/><path class="cls-1" d="M194,62.7c0,4.15-2.52,8-6.38,9.07-7.37,2.08-14.78,4.06-22.22,5.89-4.52,1.11-8-1.34-9.33-6.16-1.22-4.5.78-8.89,5-10.47,2.75-1,5.6-1.71,8.41-2.53,4.56-1.32,9.09-2.72,13.67-3.91A8.68,8.68,0,0,1,194,62.7Z"/><path class="cls-1" d="M176.77,112c-3.2,0-6.4.09-9.6,0-4.72-.17-7.79-3.68-7.79-8.75a8.14,8.14,0,0,1,7.92-8.46c6.54,0,13.08,0,19.6.38,4.29.21,7.32,3.68,7.55,8a8.45,8.45,0,0,1-8.09,9.26c-3.2.1-6.4,0-9.59,0Z"/><path class="cls-1" d="M143.08,37.47a8.13,8.13,0,0,1,3.68-7.25c5.48-3.5,11-7,16.57-10.25a7.87,7.87,0,0,1,11.23,3.17A8.86,8.86,0,0,1,171.36,35c-5.3,3.39-10.62,6.74-16,9.92C149.69,48.2,143.08,44.13,143.08,37.47Z"/></g></svg>