<?xml version="1.0" standalone="no"?>
<!DOCTYPE svg PUBLIC "-//W3C//DTD SVG 20010904//EN"
 "http://www.w3.org/TR/2001/REC-SVG-20010904/DTD/svg10.dtd">
<svg version="1.0" xmlns="http://www.w3.org/2000/svg"
 width="300.000000pt" height="300.000000pt" viewBox="0 0 300.000000 300.000000"
 preserveAspectRatio="xMidYMid meet">
<metadata>
Created by potrace 1.11, written by Peter Selinger 2001-2013
</metadata>
<g transform="translate(0.000000,300.000000) scale(0.100000,-0.100000)"
fill="#000000" stroke="none">
<path d="M1395 2820 c-99 -13 -185 -39 -280 -84 -248 -118 -426 -341 -491
-612 -9 -39 -17 -116 -18 -175 l-1 -107 -45 -28 c-63 -40 -179 -157 -230 -233
-175 -260 -204 -598 -76 -875 121 -263 358 -452 636 -511 93 -20 271 -19 368
1 42 8 114 31 160 51 l82 35 83 -35 c109 -47 212 -67 347 -67 236 0 436 76
602 230 135 123 224 269 270 440 32 121 32 329 0 448 -30 110 -69 195 -133
287 -54 78 -161 186 -229 231 l-40 27 0 86 c-1 440 -330 820 -769 886 -104 16
-143 17 -236 5z m177 -1006 c141 -94 269 -252 328 -406 28 -72 60 -198 60
-234 0 -22 -151 -90 -256 -115 -76 -18 -110 -20 -234 -16 -158 5 -250 27 -373
89 -58 29 -58 29 -51 66 36 210 118 375 255 511 50 50 181 149 198 151 2 0 34
-21 73 -46z"/>
</g>
</svg>
